<?xml version="1.0" encoding="UTF-8" standalone="no"?>
<!-- Created with Inkscape (http://www.inkscape.org/) -->

<svg
   xmlns:dc="http://purl.org/dc/elements/1.1/"
   xmlns:cc="http://creativecommons.org/ns#"
   xmlns:rdf="http://www.w3.org/1999/02/22-rdf-syntax-ns#"
   xmlns:svg="http://www.w3.org/2000/svg"
   xmlns="http://www.w3.org/2000/svg"
   xmlns:sodipodi="http://sodipodi.sourceforge.net/DTD/sodipodi-0.dtd"
   xmlns:inkscape="http://www.inkscape.org/namespaces/inkscape"
   width="1400"
   height="900"
   id="svg2"
   version="1.1"
   inkscape:version="0.48.5 r10040"
   sodipodi:docname="unit2wireframe1.svg">
  <defs
     id="defs4" />
  <sodipodi:namedview
     id="base"
     pagecolor="#ffffff"
     bordercolor="#666666"
     borderopacity="1.0"
     inkscape:pageopacity="0.0"
     inkscape:pageshadow="2"
     inkscape:zoom="0.57888889"
     inkscape:cx="838.19578"
     inkscape:cy="519.09789"
     inkscape:document-units="px"
     inkscape:current-layer="layer1"
     showgrid="false"
     showguides="false"
     inkscape:snap-global="true"
     inkscape:guide-bbox="true"
     inkscape:window-width="1275"
     inkscape:window-height="727"
     inkscape:window-x="0"
     inkscape:window-y="0"
     inkscape:window-maximized="0">
    <inkscape:grid
       type="xygrid"
       id="grid2985"
       empspacing="5"
       visible="true"
       enabled="true"
       snapvisiblegridlinesonly="true" />
    <sodipodi:guide
       orientation="1,0"
       position="700,760"
       id="guide2989" />
    <sodipodi:guide
       orientation="0,1"
       position="560,460"
       id="guide2991" />
  </sodipodi:namedview>
  <metadata
     id="metadata7">
    <rdf:RDF>
      <cc:Work
         rdf:about="">
        <dc:format>image/svg+xml</dc:format>
        <dc:type
           rdf:resource="http://purl.org/dc/dcmitype/StillImage" />
        <dc:title></dc:title>
      </cc:Work>
    </rdf:RDF>
  </metadata>
  <g
     inkscape:label="Layer 1"
     inkscape:groupmode="layer"
     id="layer1"
     transform="translate(0,-152.36218)">
    <path
       sodipodi:type="star"
       style="fill:#ff0100;fill-opacity:1;fill-rule:evenodd;stroke:#000000;stroke-width:1px;stroke-linecap:butt;stroke-linejoin:miter;stroke-opacity:1"
       id="path2997"
       sodipodi:sides="8"
       sodipodi:cx="640"
       sodipodi:cy="380"
       sodipodi:r1="145.62439"
       sodipodi:r2="107.74194"
       sodipodi:arg1="0.84095658"
       sodipodi:arg2="1.2336557"
       inkscape:flatsided="true"
       inkscape:rounded="0"
       inkscape:randomized="0"
       d="M 737.09509,488.53113 631.9135,525.3997 531.46887,477.09509 494.6003,371.9135 542.90491,271.46887 648.0865,234.6003 748.53113,282.90491 785.3997,388.0865 z"
       transform="matrix(0.97415679,-0.25644764,0.26102453,0.95707561,-25.564795,393.82725)" />
    <path
       sodipodi:type="star"
       style="opacity:0.58333333;fill:#ff2200;fill-opacity:1;fill-rule:evenodd;stroke:#000000;stroke-width:1px;stroke-linecap:butt;stroke-linejoin:miter;stroke-opacity:1"
       id="path3004"
       sodipodi:sides="8"
       sodipodi:cx="520"
       sodipodi:cy="260"
       sodipodi:r1="205.9126"
       sodipodi:r2="170.35497"
       sodipodi:arg1="1.0636978"
       sodipodi:arg2="1.456397"
       inkscape:flatsided="true"
       inkscape:rounded="0"
       inkscape:randomized="0"
       d="M 620,439.99999 463.43146,457.9899 340.00001,360 322.0101,203.43146 420,80.000007 576.56854,62.010105 699.99999,160 717.9899,316.56854 z"
       transform="matrix(1.1287968,0,0,1.1648595,189.84225,225.98466)" />
    <path
       sodipodi:type="star"
       style="opacity:0.275;fill:#8a0000;fill-opacity:1"
       id="path3776"
       sodipodi:sides="8"
       sodipodi:cx="440"
       sodipodi:cy="180"
       sodipodi:r1="344.09302"
       sodipodi:r2="317.90048"
       sodipodi:arg1="0.62024949"
       sodipodi:arg2="1.0129486"
       inkscape:flatsided="true"
       inkscape:rounded="0"
       inkscape:randomized="0"
       d="M 720,380.00001 496.56854,519.41126 239.99999,460 100.58874,236.56854 160,-20.000005 383.43146,-159.41126 640.00001,-100 779.41126,123.43146 z"
       transform="matrix(0,0.87923915,-0.8951291,0,830.48709,227.07328)" />
    <path
       sodipodi:type="star"
       style="opacity:0.275;fill:#8a0000;fill-opacity:1"
       id="path3780"
       sodipodi:sides="8"
       sodipodi:cx="20"
       sodipodi:cy="20"
       sodipodi:r1="222.27127"
       sodipodi:r2="165.2686"
       sodipodi:arg1="0.88381846"
       sodipodi:arg2="1.2765175"
       inkscape:flatsided="true"
       inkscape:rounded="0"
       inkscape:randomized="0"
       d="M 160.96521,191.85263 -1.8407043,241.19562 -151.85263,160.96521 -201.19562,-1.8407043 -120.96521,-151.85263 41.840704,-201.19562 191.85263,-120.96521 241.19562,41.840704 z"
       transform="matrix(1.0507076,0,0,0.45208852,216.03765,243.32041)" />
    <path
       sodipodi:type="star"
       style="opacity:0.275;fill:#8a0000;fill-opacity:1"
       id="path3784"
       sodipodi:sides="8"
       sodipodi:cx="60"
       sodipodi:cy="240"
       sodipodi:r1="127.52573"
       sodipodi:r2="123.95145"
       sodipodi:arg1="0.42315898"
       sodipodi:arg2="0.81585806"
       inkscape:flatsided="true"
       inkscape:rounded="0"
       inkscape:randomized="0"
       d="m 176.27748,292.36753 -71.08632,66.8825 -97.5586869,-2.97255 -66.8825031,-71.08632 2.972547,-97.55869 71.08632,-66.8825 97.558693,2.97255 66.8825,71.08632 z"
       transform="matrix(1.1175766,0,0,0.55770937,102.44082,332.00507)" />
    <path
       sodipodi:type="star"
       style="opacity:0.275;fill:#8a0000;fill-opacity:1"
       id="path3794"
       sodipodi:sides="8"
       sodipodi:cx="900"
       sodipodi:cy="800"
       sodipodi:r1="56.568542"
       sodipodi:r2="52.26252"
       sodipodi:arg1="0.78539816"
       sodipodi:arg2="1.1780972"
       inkscape:flatsided="true"
       inkscape:rounded="0"
       inkscape:randomized="0"
       d="M 940,840 900,856.56854 860,840 843.43146,800 860,760 900,743.43146 940,760 l 16.56854,40 z"
       transform="translate(120,155.79364)" />
    <path
       sodipodi:type="star"
       style="opacity:0.275;fill:#8a0000;fill-opacity:1"
       id="path3796"
       sodipodi:sides="8"
       sodipodi:cx="980"
       sodipodi:cy="760"
       sodipodi:r1="56.568542"
       sodipodi:r2="52.26252"
       sodipodi:arg1="0.78539816"
       sodipodi:arg2="1.1780972"
       inkscape:flatsided="true"
       inkscape:rounded="0"
       inkscape:randomized="0"
       d="M 1020,800 980,816.56854 940,800 923.43146,760 940,720 980,703.43146 1020,720 l 16.5685,40 z"
       transform="translate(200,195.79364)" />
    <path
       sodipodi:type="star"
       style="opacity:0.275;fill:#8a0000;fill-opacity:1"
       id="path3798"
       sodipodi:sides="8"
       sodipodi:cx="1080"
       sodipodi:cy="740"
       sodipodi:r1="56.568542"
       sodipodi:r2="52.26252"
       sodipodi:arg1="0.78539816"
       sodipodi:arg2="1.1780972"
       inkscape:flatsided="true"
       inkscape:rounded="0"
       inkscape:randomized="0"
       d="M 1120,780 1080,796.56854 1040,780 1023.4315,740 1040,700 1080,683.43146 1120,700 l 16.5685,40 z"
       transform="translate(243.43146,212.36218)" />
    <path
       sodipodi:type="star"
       style="opacity:0.275;fill:#8a0000;fill-opacity:1"
       id="path3784-8"
       sodipodi:sides="8"
       sodipodi:cx="60"
       sodipodi:cy="240"
       sodipodi:r1="127.52573"
       sodipodi:r2="123.95145"
       sodipodi:arg1="0.42315898"
       sodipodi:arg2="0.81585806"
       inkscape:flatsided="true"
       inkscape:rounded="0"
       inkscape:randomized="0"
       d="m 176.27748,292.36753 -71.08632,66.8825 -97.5586869,-2.97255 -66.8825031,-71.08632 2.972547,-97.55869 71.08632,-66.8825 97.558693,2.97255 66.8825,71.08632 z"
       transform="matrix(0.88069712,0,0,0.46615276,1226.9579,156.07425)" />
    <path
       sodipodi:type="star"
       style="opacity:0.275;fill:#8a0000;fill-opacity:1"
       id="path3784-4"
       sodipodi:sides="8"
       sodipodi:cx="60"
       sodipodi:cy="240"
       sodipodi:r1="127.52573"
       sodipodi:r2="123.95145"
       sodipodi:arg1="0.42315898"
       sodipodi:arg2="0.81585806"
       inkscape:flatsided="true"
       inkscape:rounded="0"
       inkscape:randomized="0"
       d="m 176.27748,292.36753 -71.08632,66.8825 -97.5586869,-2.97255 -66.8825031,-71.08632 2.972547,-97.55869 71.08632,-66.8825 97.558693,2.97255 66.8825,71.08632 z"
       transform="matrix(0.89924004,0,0,0.47581273,970.60697,143.08426)" />
    <path
       sodipodi:type="star"
       style="opacity:0.275;fill:#8a0000;fill-opacity:1"
       id="path3784-3"
       sodipodi:sides="8"
       sodipodi:cx="60"
       sodipodi:cy="240"
       sodipodi:r1="127.52573"
       sodipodi:r2="123.95145"
       sodipodi:arg1="0.42315898"
       sodipodi:arg2="0.81585806"
       inkscape:flatsided="true"
       inkscape:rounded="0"
       inkscape:randomized="0"
       d="m 176.27748,292.36753 -71.08632,66.8825 -97.5586869,-2.97255 -66.8825031,-71.08632 2.972547,-97.55869 71.08632,-66.8825 97.558693,2.97255 66.8825,71.08632 z"
       transform="matrix(1.1175766,0,0,0.55770937,102.44082,652.00507)" />
    <path
       sodipodi:type="star"
       style="opacity:0.275;fill:#8a0000;fill-opacity:1"
       id="path3784-41"
       sodipodi:sides="8"
       sodipodi:cx="60"
       sodipodi:cy="240"
       sodipodi:r1="127.52573"
       sodipodi:r2="123.95145"
       sodipodi:arg1="0.42315898"
       sodipodi:arg2="0.81585806"
       inkscape:flatsided="true"
       inkscape:rounded="0"
       inkscape:randomized="0"
       d="m 176.27748,292.36753 -71.08632,66.8825 -97.5586869,-2.97255 -66.8825031,-71.08632 2.972547,-97.55869 71.08632,-66.8825 97.558693,2.97255 66.8825,71.08632 z"
       transform="matrix(1.1175766,0,0,0.55770937,102.44082,492.00507)" />
    <path
       style="opacity:0.275;fill:#ff2200;fill-opacity:1"
       id="path3872"
       d="m 58.02666,158.6946 c -6.211481,3.54839 -12.408756,7.12176 -18.634441,10.64517 -1.630796,0.92295 3.229905,-1.90081 4.849349,-2.84353 1.971407,-1.14761 3.943675,-2.29381 5.923161,-3.42742 14.569651,-8.34378 28.492119,-16.50901 43.42419,-23.86888 19.358141,-9.46364 39.055181,-18.2039 58.528111,-27.42429 13.96478,-6.6019 27.73661,-13.571982 41.91745,-19.70681 11.88415,-5.432624 24.14027,-9.976368 36.14314,-15.135646 18.00827,-7.719784 36.34159,-14.628184 54.71202,-21.42632 17.49357,-6.224464 34.60829,-13.373524 50.88976,-22.308626 2.29598,-1.280671 9.17471,-5.139067 6.88795,-3.842011 -4.97431,2.821431 -9.89814,5.736343 -14.95066,8.415189 -3.07347,1.629557 5.84077,-3.785493 8.84795,-5.534369 8.2368,-4.790254 16.53492,-9.474512 24.77541,-14.25842 6.30079,-3.657837 -12.63749,7.25345 -18.95624,10.880174 7.93503,-4.57943 15.87005,-9.158861 23.80507,-13.738292 0.56325,-0.302846 2.2433,-1.228749 1.68974,-0.908538 -6.81757,3.943689 -27.34545,15.643587 -20.48251,11.779396 7.77675,-4.378712 15.48865,-8.871636 23.22403,-13.323015 0.43805,-0.252076 1.73459,-1.038013 1.29586,-0.787124 -6.7515,3.860917 -13.48974,7.744968 -20.23461,11.617452 5.649,-3.575377 11.35905,-7.044647 16.87748,-10.82446 2.20397,-1.532972 4.45694,-2.9931321 6.69929,-4.4687338 0,0 23.68305,-9.2664799 23.68305,-9.2664799 l 0,0 c -2.28895,1.5451639 -4.63261,2.9984486 -6.94446,4.5093394 -5.36959,3.8029538 -10.89708,7.3772243 -16.57718,10.6975113 -7.80065,4.612957 -15.59185,9.241928 -23.40195,13.83887 -0.44129,0.259742 -1.79396,0.98805 -1.3513,0.730637 6.85783,-3.987955 27.49746,-15.837118 20.59744,-11.922613 -7.78955,4.419147 -15.50532,8.967112 -23.2661,13.436589 -0.5175,0.298031 -2.08464,1.166089 -1.56846,0.865779 6.5101,-3.787541 13.03372,-7.551786 19.55058,-11.327678 -8.06181,4.662227 -16.0776,9.404976 -24.18544,13.986682 -6.05325,3.420658 12.00224,-7.022705 18.02121,-10.503305 1.41311,-0.817158 -2.81201,1.658938 -4.20326,2.512778 -1.69712,1.041565 -3.34766,2.159023 -5.06134,3.173122 -24.46891,14.47989 -18.86855,11.322948 -33.59939,19.417615 -16.33037,8.649154 -33.40053,15.661627 -50.81877,21.823897 -18.49655,6.854544 -36.92677,13.896322 -55.00138,21.811821 -12.11231,5.215924 -24.43517,9.924719 -36.44334,15.383449 -13.89904,6.05725 -27.45572,12.8277 -41.19645,19.22976 -19.5575,9.17196 -39.320831,17.90999 -58.640049,27.58428 -2.794676,1.4159 -5.609169,2.79335 -8.384029,4.2477 -7.784461,4.07998 -19.011545,10.71538 6.595675,-4.16911 1.897465,-1.10293 -3.774241,2.2412 -5.672522,3.34272 -1.50877,0.8755 -3.032226,1.72544 -4.54834,2.58815 -8.231337,4.86003 -16.462674,9.72006 -24.694011,14.58009 0,0 19.878316,-16.0825 19.878316,-16.0825 z"
       inkscape:connector-curvature="0"
       transform="translate(0,152.36218)" />
    <path
       style="opacity:0.275;fill:#ff2200;fill-opacity:1"
       id="path3874"
       d="m 86.087939,14.928902 c 18.161711,1.36164 35.870231,6.854933 53.302601,11.827757 37.93416,10.427163 75.06329,23.430167 112.01402,36.866511 21.71092,8.296829 44.11489,15.116876 65.10492,25.215565 2.89483,1.392759 5.70554,2.954003 8.55831,4.431005 12.76996,7.09123 24.28518,16.1176 36.51398,24.05979 8.30357,5.26799 17.056,9.72524 25.94914,13.89447 6.27032,3.48753 13.04172,5.58607 19.91681,7.45445 7.0677,1.46477 13.78217,4.1845 20.60965,6.45531 2.90688,0.97935 5.90058,1.58224 8.91244,2.11525 0,0 -20.76933,14.47586 -20.76933,14.47586 l 0,0 c -3.03742,-0.66844 -6.05126,-1.41142 -8.98357,-2.46683 -6.77555,-2.34131 -13.5243,-4.80933 -20.55231,-6.3132 -6.9556,-1.92232 -13.68995,-4.4012 -20.0192,-7.92221 -8.87788,-4.29997 -17.59346,-8.95219 -25.84355,-14.37688 C 328.84628,122.5991 317.59938,113.49845 305.0295,106.39448 282.03398,94.087956 257.51365,85.067912 233.12678,75.940265 196.24799,62.143033 159.04636,49.138495 120.82188,39.521661 102.70542,35.014621 84.188007,29.776677 65.365376,29.984726 c 0,0 20.722563,-15.055824 20.722563,-15.055824 z"
       inkscape:connector-curvature="0"
       transform="translate(0,152.36218)" />
    <path
       style="opacity:0.275;fill:#ff2200;fill-opacity:1"
       id="path3876"
       d="m 101.36486,302.71425 c 0.80226,5.58536 3.73094,9.2996 8.54485,12.01901 0.93151,0.14139 1.85334,0.46721 2.79454,0.42417 3.69949,-0.16918 7.91943,-3.08255 7.13801,-2.63243 -5.45672,3.14318 -10.82484,6.47231 -16.5033,9.19453 -1.9742,0.94642 3.59515,-2.50249 5.32992,-3.83808 1.86557,-1.43629 3.64396,-2.98238 5.46594,-4.47358 7.14643,-5.50245 13.44611,-12.49735 21.4251,-16.88891 8.19812,-4.51216 16.48366,-8.86363 24.72548,-13.29545 7.82345,0.97074 10.62671,7.83162 14.56368,13.69253 1.90279,2.68449 4.1828,6.55649 8.10475,6.17578 2.37266,-0.23032 4.71057,-1.88197 6.65881,-2.98428 -24.75597,13.70529 -20.77535,12.60141 -12.88466,6.21914 4.63939,-3.7525 8.87746,-7.7958 13.81236,-11.17684 9.9908,-5.62794 20.91532,-18.80455 32.94504,-12.449 2.01277,1.06338 3.41655,2.36934 5.15255,3.80263 3.61003,2.91251 6.35377,7.05235 10.6774,8.94049 4.76413,2.06641 10.02045,2.37554 15.13737,2.69063 3.07021,0.11839 1.57549,-0.0384 4.48651,0.44749 0,0 -20.82384,14.69183 -20.82384,14.69183 l 0,0 c -2.74237,-0.30294 -1.31486,-0.16758 -4.28355,-0.39513 -5.40219,-0.48824 -10.91471,-1.02218 -15.85519,-3.44508 -4.1625,-2.46828 -7.05382,-6.39855 -10.75393,-9.47341 -2.29322,-1.75743 -4.38559,-3.35294 -7.3476,-3.76453 -7.48016,-1.03939 -26.42639,14.98404 14.11287,-10.17466 -15.2602,9.19265 -25.36518,25.09412 -43.97486,29.67631 -1.3659,0.51857 -2.66947,1.24784 -4.09769,1.55571 -6.05668,1.30559 -9.97033,-2.93551 -12.84369,-7.59306 -2.46303,-3.81668 -5.18149,-10.35749 -10.31089,-11.09866 -0.79867,-0.1154 -1.61056,0.10413 -2.41584,0.1562 36.98259,-22.344 18.26732,-11.66801 11.27483,-6.58318 -5.15959,3.75198 -9.95481,7.9697 -14.79895,12.11052 -12.92021,11.06772 -18.03441,13.63285 -36.60483,23.73625 -3.773559,2.05303 -7.706634,2.05756 -11.564751,0.47363 -5.143064,-3.39531 -8.436759,-7.66386 -9.94838,-13.71827 0,0 22.661941,-12.0223 22.661941,-12.0223 z"
       inkscape:connector-curvature="0"
       transform="translate(0,152.36218)" />
    <path
       style="opacity:0.275;fill:#ff2200;fill-opacity:1"
       id="path3878"
       d="m 110.46166,476.16979 c 2.95073,0.0932 4.89781,0.22046 7.99626,-0.0465 3.73197,-0.32156 12.09364,-1.64692 15.42756,-2.13274 11.67441,-1.70118 7.61391,-1.13616 19.70818,-2.57051 14.73998,-2.02642 28.8803,-2.59806 42.51965,4.2328 2.03066,1.017 3.9134,2.30582 5.87009,3.45872 4.76986,2.85172 9.01051,6.44472 13.45096,9.75293 1.42236,1.05968 4.09555,3.12104 6.00137,3.54542 0.92629,0.20627 1.89753,-0.0401 2.84629,-0.0602 1.05634,-0.33426 2.16132,-0.54223 3.16903,-1.00279 1.18597,-0.54202 4.51823,-2.60444 3.37032,-1.98589 -5.93529,3.19821 -11.65715,6.80663 -17.73446,9.72596 -1.43797,0.69076 2.50917,-1.97167 3.72991,-2.99866 1.25261,-1.05381 2.44943,-2.17237 3.68834,-3.24225 1.18525,-1.02353 2.38924,-2.02516 3.58385,-3.03774 10.68719,-7.85866 5.97763,-4.59443 28.46298,-16.98967 2.85765,-1.57531 7.32582,-2.67529 10.58362,-2.89462 1.11525,-0.0751 2.23261,0.11453 3.34892,0.17179 4.40147,0.39002 8.52288,2.09142 12.76343,3.22331 0,0 -21.00928,14.39333 -21.00928,14.39333 l 0,0 c -3.99105,-1.2012 -7.94964,-2.73844 -12.17818,-2.75802 -1.0076,0.0707 -2.02441,0.0588 -3.02279,0.21197 -9.08742,1.39437 -27.58188,13.06364 7.84027,-7.10611 1.26927,-0.72274 -2.43615,1.61206 -3.65423,2.41809 -1.22026,0.98772 -2.47169,1.93813 -3.6608,2.96316 -1.0137,0.87382 -6.07465,5.68231 -7.26161,6.43684 -8.24124,5.23882 -16.62374,10.25749 -25.08245,15.13741 -3.1286,1.80493 -4.14602,1.58366 -7.54287,1.96428 -1.11556,-0.24615 -2.28211,-0.32401 -3.34667,-0.73846 -4.37357,-1.70274 -9.91934,-7.50421 -13.85733,-10.32913 -1.6604,-1.19109 -3.38383,-2.29178 -5.07574,-3.43767 -4.83178,-2.75774 -6.51727,-4.04067 -11.89242,-5.78714 -11.39881,-3.70366 -23.30458,-2.54151 -34.97993,-1.04875 -14.90173,1.94 -29.7071,5.1175 -44.750486,5.56172 0,0 20.688216,-15.03086 20.688216,-15.03086 z"
       inkscape:connector-curvature="0"
       transform="translate(0,152.36218)" />
    <path
       style="opacity:0.275;fill:#ff2200;fill-opacity:1"
       id="path3880"
       d="m 118.59264,608.78233 c 0.83085,-0.31953 1.66378,-0.63369 2.49255,-0.95859 1.28224,-0.50267 2.61373,-0.89789 3.84039,-1.52409 1.8324,-0.93541 7.13321,-4.09917 5.30956,-3.14683 -4.75688,2.4841 -9.20503,5.57682 -14.11411,7.74467 -2.98977,1.32029 5.53493,-3.47762 8.32095,-5.18641 2.91631,-1.78871 5.85708,-3.53724 8.78562,-5.30585 10.9724,-6.24399 24.67941,-14.57786 37.00275,-20.62525 4.62748,-2.27082 8.49631,-4.18556 13.50424,-5.35917 4.48954,-1.05211 5.62088,-0.70635 9.94944,-0.4621 0.85598,0.13066 1.76605,0.0653 2.56794,0.39199 0.70778,0.28837 2.36056,2.76991 1.39257,3.4379 -7.23036,4.98957 -15.21901,8.77943 -22.84047,13.14834 -6.99958,4.01244 28.88762,-13.15938 20.86991,-12.2593 -0.2661,0.76224 -0.15961,0.21083 0.27722,1.51637 2.05589,6.14447 5.56875,7.90629 10.56203,12.00202 9.24871,6.86034 18.40152,13.82589 27.3573,21.06064 1.9183,1.0652 4.64077,4.54348 7.25154,3.32059 0.77862,-0.3647 1.3377,-1.08134 2.02855,-1.59319 -6.95693,3.98943 -13.91385,7.97886 -20.87077,11.96829 0,0 23.77112,-9.60718 23.77112,-9.60718 l 0,0 c -7.6338,4.55866 -15.2676,9.11732 -22.90141,13.67599 -4.29721,1.43803 -7.50435,-1.86774 -10.59649,-4.45489 -8.55711,-7.57296 -17.54175,-14.6048 -26.79444,-21.31546 -2.42465,-1.84579 -7.46218,-5.46845 -9.69298,-7.89232 -1.9278,-2.09465 -2.63965,-5.16619 -3.70045,-7.72357 -0.35064,-10.23668 -0.37538,0.87367 22.57093,-14.71917 6.77739,-4.60548 -14.53151,7.67319 -21.22987,12.39287 -1.77794,1.25273 6.15053,2.45996 -0.31335,1.2999 -1.36298,-8.6e-4 -2.73255,-0.13644 -4.08895,-0.003 -6.38967,0.63056 -12.19098,3.43336 -17.86018,6.24234 -2.62925,1.30274 -10.1578,5.81809 -7.81566,4.05048 3.6638,-2.76504 7.8778,-4.71336 11.8167,-7.07004 -2.89713,1.74298 -5.79426,3.48597 -8.69139,5.22895 -2.67762,1.67565 -5.32975,3.39273 -8.03285,5.02695 -9.18,5.54995 -18.36593,11.09111 -27.61521,16.52482 -4.12012,2.42045 -8.34157,4.51225 -13.014962,5.59228 0,0 20.502232,-15.41939 20.502232,-15.41939 z"
       inkscape:connector-curvature="0"
       transform="translate(0,152.36218)" />
    <path
       style="opacity:0.275;fill:#ff2200;fill-opacity:1"
       id="path3882"
       d="m 984.71826,100.96044 c 6.21657,3.95639 13.48245,6.83104 20.77844,8.05621 1.8101,0.30398 3.655,0.34202 5.4826,0.51302 1.8843,-0.19502 3.7971,-0.20507 5.6531,-0.58506 3.6275,-0.74271 7.4418,-2.3955 10.683,-4.13704 1.6584,-0.89108 6.4788,-3.83482 4.8228,-2.93929 -16.1698,8.74425 -22.9304,13.67481 -13.4736,7.03336 9.893,-6.95547 8.8777,-6.38616 27.6288,-16.21618 0.8866,-0.464778 1.9822,-0.488926 2.978,-0.387017 3.0606,0.313213 5.8594,2.832944 8.1401,4.613765 3.7365,3.318212 6.8611,7.325682 10.8735,10.335262 2.593,1.94495 3.2404,2.08964 6.1103,3.47554 3.2493,0.92194 6.0164,0.45702 8.9578,-1.14287 0.9053,-0.49238 3.4755,-2.21081 2.5716,-1.71585 -6.438,3.52564 -12.7886,7.20848 -19.183,10.81272 0,0 23.5066,-9.34298 23.5066,-9.34298 l 0,0 c -7.9967,4.80124 -15.9394,9.69367 -23.9902,14.40371 -1.7996,1.05281 -4.0914,1.85774 -6.1736,2.03133 -2.9505,0.24598 -3.9409,-0.36722 -6.7384,-1.2337 -6.9139,-3.77993 -11.5941,-8.75752 -17.2577,-14.09552 -2.0636,-1.39066 -4.2801,-3.21953 -6.9838,-2.80409 -0.864,0.13275 -3.2276,1.29474 -2.4881,0.82861 35.2486,-22.218512 21.6338,-13.052593 15.2952,-8.737851 -11.3958,8.181031 -4.1141,3.112901 -29.0093,17.714801 -6.8285,4.00512 -14.073,6.76612 -22.11928,6.40932 -9.86439,-1.35178 -18.79409,-4.05853 -27.50296,-8.95456 0,0 21.4381,-13.93564 21.4381,-13.93564 z"
       inkscape:connector-curvature="0"
       transform="translate(0,152.36218)" />
    <path
       style="opacity:0.275;fill:#ff2200;fill-opacity:1"
       id="path3884"
       d="m 1239.0531,104.80607 c 9.9928,-0.0275 20.0773,0.96019 30.0411,-0.17368 2.2357,-0.25442 4.4406,-0.7308 6.6609,-1.0962 5.0214,-1.61894 6.5914,-1.89352 11.2032,-4.239555 1.4409,-0.732957 5.5847,-3.258975 4.1759,-2.466248 -6.0259,3.390583 -11.9784,6.911413 -18.0275,10.260203 -0.8756,0.48473 1.6366,-1.15634 2.4992,-1.66383 7.8761,-4.63377 15.8083,-9.171566 23.7125,-13.757348 0.7224,0.10742 1.5107,0.0023 2.1672,0.322259 3.6795,1.793337 5.6619,8.900329 6.9376,12.507709 1.5292,3.87743 4.3499,4.92142 8.1793,5.39757 4.7318,0.33559 9.483,0.22292 14.2232,0.20643 4.7068,-0.42479 9.2645,0.20058 13.9058,0.80652 3.4496,0.40655 6.9213,0.54886 10.3898,0.67768 0,0 -20.5986,14.82347 -20.5986,14.82347 l 0,0 c -3.5287,-0.18916 -7.0606,-0.38206 -10.571,-0.80403 -4.5305,-0.56796 -9.046,-0.81277 -13.6178,-0.59643 -4.8756,0.0421 -9.7984,0.22726 -14.6349,-0.49251 -4.5209,-1.05488 -7.7544,-3.29239 -9.4962,-7.77429 -0.6007,-1.89126 -2.7997,-9.75864 -5.3015,-9.61915 -0.4859,0.0271 -0.9093,0.34739 -1.3639,0.52109 6.5322,-3.81698 13.0158,-7.718258 19.5965,-11.450946 0.928,-0.52637 -1.7112,1.281411 -2.6284,1.826342 -13.2744,7.886534 -25.3463,16.746734 -40.3767,20.216834 -2.2403,0.29042 -4.4705,0.67342 -6.7209,0.87126 -10.282,0.90393 -20.642,0.0959 -30.94,0.65285 0,0 20.5852,-14.956 20.5852,-14.956 z"
       inkscape:connector-curvature="0"
       transform="translate(0,152.36218)" />
    <path
       style="opacity:0.275;fill:#ff2200;fill-opacity:1"
       id="path3886"
       d="m 1015.2651,792.26767 c 6.2719,-0.23487 12.8462,1.10354 19.0428,-0.31417 1.362,-0.3116 2.6358,-0.92794 3.9536,-1.39191 -40.24006,21.50996 -12.2621,11.06497 -13.0181,1.57839 -0.1668,-2.0929 -1.3769,-2.55863 -2.8252,-3.75927 -3.5183,-1.74672 -7.1718,-2.27708 -10.9848,-1.05065 -1.3474,0.43339 -5.0645,2.52487 -3.8328,1.8275 19.926,-11.28185 22.3185,-14.41119 14.6072,-6.43411 -2.85,4.4572 -7.6686,12.36004 -4.713,17.84001 0.4432,0.8218 1.1844,1.44372 1.7766,2.16558 6.6598,4.36735 11.4166,3.25946 18.2489,0.21406 0,0 -19.7414,15.46962 -19.7414,15.46962 l 0,0 c -8.0269,2.56305 -13.212,2.50599 -20.18715,-2.75107 -0.74663,-0.98111 -1.66504,-1.85265 -2.2399,-2.94333 -3.47698,-6.59689 0.84165,-14.46666 3.88852,-20.26205 8.51213,-11.35697 2.91123,-4.91627 28.04563,-18.74292 5.3117,-2.92204 11.7213,-1.43958 16.6268,1.37608 0.8624,0.85756 1.9024,1.56755 2.587,2.5727 9.5355,13.99987 -26.9096,27.57275 -28.0687,28.18515 -1.4036,0.32961 -2.7849,0.77446 -4.2106,0.98881 -6.5021,0.97756 -13.1802,-0.0787 -19.71233,0.51236 0,0 20.75693,-15.08078 20.75693,-15.08078 z"
       inkscape:connector-curvature="0"
       transform="translate(0,152.36218)" />
    <path
       style="opacity:0.275;fill:#ff2200;fill-opacity:1"
       id="path3888"
       d="m 1171.6831,819.44058 c -4.9221,-0.55462 -10.3331,0.73268 -15.1103,-0.97439 -0.9581,-0.34235 -1.7777,-0.98997 -2.6666,-1.48495 -4.6794,-4.31367 -5.5794,-9.42566 -1.639,-14.75983 0.8959,-1.2128 2.051,-2.21084 3.0764,-3.31626 12.3842,-8.69307 25.6412,-19.37734 41.3794,-19.0823 4.9233,0.0923 6.2611,0.74258 10.9427,1.98147 5.3133,1.96181 11.8437,4.55845 13.906,10.47264 1.2932,3.7085 0.4335,5.31194 -0.3026,9.03211 -0.8115,1.64871 -1.4721,3.38064 -2.4344,4.94611 -9.6172,15.64568 -29.4857,23.97665 -44.236,32.49629 -1.4105,0.63656 -2.821,1.27313 -4.2315,1.90969 0,0 19.5456,-15.55428 19.5456,-15.55428 l 0,0 c 1.3284,-0.64789 2.6567,-1.29578 3.985,-1.94367 -5.4811,3.21824 -10.9075,6.53163 -16.4435,9.65472 -1.7943,1.01222 3.5242,-2.13976 5.2133,-3.3192 6.5682,-4.58659 12.3462,-10.20613 16.0544,-17.38572 0.7829,-2.5207 1.8789,-4.54534 1.0945,-7.24876 -1.5315,-5.27856 -8.1153,-7.32472 -12.5671,-8.95352 -5.4595,-1.18594 -10.3385,-1.86362 -15.9032,-0.62696 -1.7921,0.39828 -6.7238,2.76061 -5.2492,1.66694 2.2702,-1.6838 26.0149,-15.60902 12.3721,-7.59265 -4.5174,3.96504 -9.6369,8.52371 -3.3902,13.67301 5.482,2.26576 11.5586,1.3159 17.3611,1.32873 0,0 -20.7569,15.08078 -20.7569,15.08078 z"
       inkscape:connector-curvature="0"
       transform="translate(0,152.36218)" />
    <path
       style="opacity:0.275;fill:#ff2200;fill-opacity:1"
       id="path3890"
       d="m 1317.9473,809.5671 c 6.3965,-0.0111 13.3686,0.76982 19.5109,-1.55257 1.1021,-0.4167 2.07,-1.12603 3.1051,-1.68904 -35.1373,19.42117 -17.3757,13.85348 -15.6535,3.91799 0.8672,-5.00279 -0.8581,-7.61605 -3.5124,-11.57301 -9.4309,-8.63862 -22.3619,-10.27958 -34.5729,-11.64517 -5.9186,-0.92218 -13.4993,0.36976 -18.6407,-3.53657 -2.9707,-2.25703 -3.3395,-4.27996 -4.8275,-7.59089 -2.1431,-6.41257 -2.5931,-13.0533 -2.4546,-19.74992 0,0 22.3451,-11.24922 22.3451,-11.24922 l 0,0 c -0.4924,6.34783 -0.1973,12.61069 1.8765,18.70709 1.2423,2.67074 1.5013,4.31085 4.0116,5.98334 5.0548,3.36768 12.1736,1.97438 17.7749,3.2179 12.867,1.7463 26.2387,3.8977 35.9848,13.25366 0.9644,1.42809 2.12,2.74426 2.8933,4.28426 2.0488,4.08005 2.3833,8.96189 0.9485,13.29806 -0.4135,1.24991 -0.6944,2.77086 -1.7691,3.53126 -7.7033,5.45021 -16.0898,9.8641 -24.1347,14.79615 -1.1299,0.40619 -2.2278,0.91587 -3.3897,1.21857 -6.5611,1.70929 -13.4957,1.01554 -20.1839,1.40898 0,0 20.6883,-15.03087 20.6883,-15.03087 z"
       inkscape:connector-curvature="0"
       transform="translate(0,152.36218)" />
    <path
       style="fill:none;stroke:#000000;stroke-width:1px;stroke-linecap:butt;stroke-linejoin:miter;stroke-opacity:1"
       d="M 600,340 780,540"
       id="path3894"
       inkscape:connector-curvature="0"
       transform="translate(0,152.36218)" />
    <path
       style="fill:none;stroke:#000000;stroke-width:1px;stroke-linecap:butt;stroke-linejoin:miter;stroke-opacity:1"
       d="M 780,340 600,540"
       id="path3896"
       inkscape:connector-curvature="0"
       transform="translate(0,152.36218)" />
    <path
       style="fill:none;stroke:#000000;stroke-width:1px;stroke-linecap:butt;stroke-linejoin:miter;stroke-opacity:1"
       d="M 660,180 940,520"
       id="path3898"
       inkscape:connector-curvature="0"
       transform="translate(0,152.36218)" />
    <path
       style="fill:none;stroke:#000000;stroke-width:1px;stroke-linecap:butt;stroke-linejoin:miter;stroke-opacity:1"
       d="M 980,260 580,500"
       id="path3900"
       inkscape:connector-curvature="0"
       transform="translate(0,152.36218)" />
    <path
       style="fill:none;stroke:#000000;stroke-width:1px;stroke-linecap:butt;stroke-linejoin:miter;stroke-opacity:1"
       d="M 420,280 920,640"
       id="path3902"
       inkscape:connector-curvature="0"
       transform="translate(0,152.36218)" />
    <path
       style="fill:none;stroke:#000000;stroke-width:1px;stroke-linecap:butt;stroke-linejoin:miter;stroke-opacity:1"
       d="M 840,220 480,700"
       id="path3904"
       inkscape:connector-curvature="0"
       transform="translate(0,152.36218)" />
  </g>
</svg>
