<?xml version="1.0" encoding="UTF-8" standalone="no"?>
<!-- Created with Inkscape (http://www.inkscape.org/) -->

<svg
   xmlns:dc="http://purl.org/dc/elements/1.1/"
   xmlns:cc="http://creativecommons.org/ns#"
   xmlns:rdf="http://www.w3.org/1999/02/22-rdf-syntax-ns#"
   xmlns:svg="http://www.w3.org/2000/svg"
   xmlns="http://www.w3.org/2000/svg"
   xmlns:sodipodi="http://sodipodi.sourceforge.net/DTD/sodipodi-0.dtd"
   xmlns:inkscape="http://www.inkscape.org/namespaces/inkscape"
   width="1400"
   height="900"
   id="svg3925"
   version="1.1"
   inkscape:version="0.48.5 r10040"
   sodipodi:docname="New document 5">
  <defs
     id="defs3927" />
  <sodipodi:namedview
     id="base"
     pagecolor="#ffffff"
     bordercolor="#666666"
     borderopacity="1.0"
     inkscape:pageopacity="0.0"
     inkscape:pageshadow="2"
     inkscape:zoom="0.57777778"
     inkscape:cx="721.24783"
     inkscape:cy="585.00015"
     inkscape:document-units="px"
     inkscape:current-layer="layer1"
     showgrid="true"
     showguides="true"
     inkscape:guide-bbox="true"
     inkscape:window-width="472"
     inkscape:window-height="442"
     inkscape:window-x="20"
     inkscape:window-y="20"
     inkscape:window-maximized="0">
    <inkscape:grid
       type="xygrid"
       id="grid3933"
       empspacing="5"
       visible="true"
       enabled="true"
       snapvisiblegridlinesonly="true" />
    <sodipodi:guide
       orientation="1,0"
       position="700,-20"
       id="guide3935" />
    <sodipodi:guide
       orientation="0,1"
       position="300,440"
       id="guide3937" />
    <sodipodi:guide
       orientation="0,1"
       position="80,700"
       id="guide3961" />
    <sodipodi:guide
       orientation="1,0"
       position="340,540"
       id="guide3963" />
    <sodipodi:guide
       orientation="1,0"
       position="1060,820"
       id="guide3965" />
  </sodipodi:namedview>
  <metadata
     id="metadata3930">
    <rdf:RDF>
      <cc:Work
         rdf:about="">
        <dc:format>image/svg+xml</dc:format>
        <dc:type
           rdf:resource="http://purl.org/dc/dcmitype/StillImage" />
        <dc:title></dc:title>
      </cc:Work>
    </rdf:RDF>
  </metadata>
  <g
     inkscape:label="Layer 1"
     inkscape:groupmode="layer"
     id="layer1"
     transform="translate(0,-152.36218)">
    <rect
       style="opacity:0.275;fill:#ff2200;fill-opacity:1"
       id="rect3939"
       width="440"
       height="120"
       x="480"
       y="172.36218" />
    <rect
       style="opacity:0.275;fill:#ff2200;fill-opacity:1"
       id="rect3941"
       width="200"
       height="100"
       x="120"
       y="252.36218" />
    <rect
       style="opacity:0.275;fill:#ff2200;fill-opacity:1"
       id="rect3941-7"
       width="200"
       height="100"
       x="1060"
       y="252.36218" />
    <path
       style="opacity:0.275;fill:#ff2200;fill-opacity:1"
       d="m 481.23077,79.615385 0,-58.846154 218.94231,0 218.9423,0 0,58.846154 0,58.846155 -218.9423,0 -218.94231,0 0,-58.846155 z"
       id="path3967"
       inkscape:connector-curvature="0"
       transform="translate(0,152.36218)" />
    <path
       style="opacity:0.275;fill:#ff2200;fill-opacity:1"
       d="m 481.23077,79.615385 0,-58.846154 218.94231,0 218.9423,0 0,58.846154 0,58.846155 -218.9423,0 -218.94231,0 0,-58.846155 z"
       id="path3969"
       inkscape:connector-curvature="0"
       transform="translate(0,152.36218)" />
    <path
       style="opacity:0.27500000000000002;fill:#292200;fill-opacity:1"
       d="m 460,232.36218 0,-80 240.00001,0 239.99999,0 0,80 0,80 -239.99999,0 -240.00001,0 0,-80 z"
       id="path3971"
       inkscape:connector-curvature="0" />
    <path
       style="opacity:0.275;fill:#ff2200;fill-opacity:1"
       d="m 140,302.07372 0,-49.32692 100,0 100,0 0,49.32692 0,49.32692 -100,0 -100,0 0,-49.32692 z"
       id="path3973"
       inkscape:connector-curvature="0" />
    <path
       style="opacity:0.275;fill:#ff2200;fill-opacity:1"
       d="m 1061.0385,149.71154 0,-49.32692 99.5192,0 99.5192,0 0,49.32692 0,49.32692 -99.5192,0 -99.5192,0 0,-49.32692 z"
       id="path3979"
       inkscape:connector-curvature="0"
       transform="translate(0,152.36218)" />
    <path
       style="opacity:0.275;fill:#ff2200;fill-opacity:1"
       d="m 1061.0385,149.71154 0,-49.32692 99.5192,0 99.5192,0 0,49.32692 0,49.32692 -99.5192,0 -99.5192,0 0,-49.32692 z"
       id="path3981"
       inkscape:connector-curvature="0"
       transform="translate(0,152.36218)" />
    <path
       style="opacity:0.27500000000000002;fill:#322200;fill-opacity:1"
       d="m 1061.0385,149.71154 0,-49.32692 99.5192,0 99.5192,0 0,49.32692 0,49.32692 -99.5192,0 -99.5192,0 0,-49.32692 z"
       id="path3983"
       inkscape:connector-curvature="0"
       transform="translate(0,152.36218)" />
    <path
       sodipodi:type="arc"
       style="opacity:0.27500000000000002;fill:#4d2200;fill-opacity:1"
       id="path3985"
       sodipodi:cx="820"
       sodipodi:cy="260"
       sodipodi:rx="60"
       sodipodi:ry="60"
       d="m 880,260 a 60,60 0 1 1 -120,0 60,60 0 1 1 120,0 z"
       transform="translate(-20,152.36218)" />
    <path
       transform="translate(160,152.36218)"
       sodipodi:type="arc"
       style="opacity:0.27500000000000002;fill:#472200;fill-opacity:1"
       id="path3985-9"
       sodipodi:cx="820"
       sodipodi:cy="260"
       sodipodi:rx="60"
       sodipodi:ry="60"
       d="m 880,260 a 60,60 0 1 1 -120,0 60,60 0 1 1 120,0 z" />
    <path
       transform="translate(-400,152.36218)"
       sodipodi:type="arc"
       style="opacity:0.27500000000000002;fill:#3d2200;fill-opacity:1"
       id="path3985-2"
       sodipodi:cx="820"
       sodipodi:cy="260"
       sodipodi:rx="60"
       sodipodi:ry="60"
       d="m 880,260 a 60,60 0 1 1 -120,0 60,60 0 1 1 120,0 z" />
    <path
       transform="translate(-220,152.36218)"
       sodipodi:type="arc"
       style="opacity:0.27500000000000002;fill:#4a2200;fill-opacity:1"
       id="path3985-6"
       sodipodi:cx="820"
       sodipodi:cy="260"
       sodipodi:rx="60"
       sodipodi:ry="60"
       d="m 880,260 a 60,60 0 1 1 -120,0 60,60 0 1 1 120,0 z" />
    <path
       style="opacity:0.275;fill:#ff2200;fill-opacity:1"
       d="m 140.26923,149.71154 0,-49.32692 89.13462,0 89.13461,0 0,49.32692 0,49.32692 -89.13461,0 -89.13462,0 0,-49.32692 z"
       id="path4025"
       inkscape:connector-curvature="0"
       transform="translate(0,152.36218)" />
    <path
       style="opacity:0.27500000000000002;fill:#282200;fill-opacity:1"
       d="m 160,301.88141 0,-49.51923 79.26924,0 79.26922,0 0,49.51923 0,49.51923 -79.26922,0 -79.26924,0 0,-49.51923 z"
       id="path4027"
       inkscape:connector-curvature="0" />
    <path
       sodipodi:type="arc"
       style="opacity:0.275;fill:#ff2200;fill-opacity:1"
       id="path4029"
       sodipodi:cx="770"
       sodipodi:cy="510"
       sodipodi:rx="110"
       sodipodi:ry="110"
       d="m 880,510 a 110,110 0 1 1 -220,0 110,110 0 1 1 220,0 z"
       transform="translate(-70,112.36218)" />
    <path
       transform="translate(-260,382.36218)"
       sodipodi:type="arc"
       style="opacity:0.275;fill:#ff2200;fill-opacity:1"
       id="path4029-9"
       sodipodi:cx="770"
       sodipodi:cy="510"
       sodipodi:rx="110"
       sodipodi:ry="110"
       d="m 880,510 a 110,110 0 1 1 -220,0 110,110 0 1 1 220,0 z" />
    <path
       transform="translate(120,382.36218)"
       sodipodi:type="arc"
       style="opacity:0.275;fill:#ff2200;fill-opacity:1"
       id="path4029-5"
       sodipodi:cx="770"
       sodipodi:cy="510"
       sodipodi:rx="110"
       sodipodi:ry="110"
       d="m 880,510 a 110,110 0 1 1 -220,0 110,110 0 1 1 220,0 z" />
    <path
       transform="translate(-430,112.36218)"
       sodipodi:type="arc"
       style="opacity:0.27500000000000002;fill:#342200;fill-opacity:1"
       id="path4029-7"
       sodipodi:cx="770"
       sodipodi:cy="510"
       sodipodi:rx="110"
       sodipodi:ry="110"
       d="m 880,510 a 110,110 0 1 1 -220,0 110,110 0 1 1 220,0 z" />
    <path
       transform="translate(290,112.36218)"
       sodipodi:type="arc"
       style="opacity:0.275;fill:#ff2200;fill-opacity:1"
       id="path4029-3"
       sodipodi:cx="770"
       sodipodi:cy="510"
       sodipodi:rx="110"
       sodipodi:ry="110"
       d="m 880,510 a 110,110 0 1 1 -220,0 110,110 0 1 1 220,0 z" />
    <path
       transform="translate(-420,852.36218)"
       sodipodi:type="arc"
       style="opacity:0.275;fill:#ff2200;fill-opacity:1"
       id="path3985-9-4"
       sodipodi:cx="820"
       sodipodi:cy="260"
       sodipodi:rx="60"
       sodipodi:ry="60"
       d="m 880,260 a 60,60 0 1 1 -120,0 60,60 0 1 1 120,0 z" />
    <path
       transform="translate(180,852.36218)"
       sodipodi:type="arc"
       style="opacity:0.275;fill:#ff2200;fill-opacity:1"
       id="path3985-9-1"
       sodipodi:cx="820"
       sodipodi:cy="260"
       sodipodi:rx="60"
       sodipodi:ry="60"
       d="m 880,260 a 60,60 0 1 1 -120,0 60,60 0 1 1 120,0 z" />
    <path
       transform="translate(-120,852.36218)"
       sodipodi:type="arc"
       style="opacity:0.275;fill:#ff2200;fill-opacity:1"
       id="path3985-9-0"
       sodipodi:cx="820"
       sodipodi:cy="260"
       sodipodi:rx="60"
       sodipodi:ry="60"
       d="m 880,260 a 60,60 0 1 1 -120,0 60,60 0 1 1 120,0 z" />
    <rect
       style="opacity:0.27500000000000002;fill:#050800;fill-opacity:1"
       id="rect4109"
       width="100"
       height="120"
       x="220"
       y="512.36218" />
    <rect
       style="opacity:0.275;fill:#ff2200;fill-opacity:1"
       id="rect4127"
       width="180"
       height="100"
       x="340"
       y="480"
       transform="translate(0,152.36218)" />
    <rect
       style="opacity:0.275;fill:#ff2200;fill-opacity:1"
       id="rect4129"
       width="20"
       height="20"
       x="420"
       y="520"
       transform="translate(0,152.36218)" />
    <rect
       style="opacity:0.275;fill:#ff2200;fill-opacity:1"
       id="rect4131"
       width="160"
       height="120"
       x="600"
       y="400"
       transform="translate(0,152.36218)" />
    <rect
       style="opacity:0.275;fill:#ff2200;fill-opacity:1"
       id="rect4133"
       width="80"
       height="180"
       x="980"
       y="380"
       transform="translate(0,152.36218)" />
    <rect
       style="opacity:0.275;fill:#ff2200;fill-opacity:1"
       id="rect4135"
       width="280"
       height="100"
       x="380"
       y="700"
       transform="translate(0,152.36218)" />
    <rect
       style="opacity:0.275;fill:#ff2200;fill-opacity:1"
       id="rect4137"
       width="80"
       height="60"
       x="860"
       y="720"
       transform="translate(0,152.36218)" />
    <rect
       style="opacity:0.275;fill:#ff2200;fill-opacity:1"
       id="rect4139"
       width="200"
       height="40"
       x="800"
       y="660"
       transform="translate(0,152.36218)" />
    <path
       style="fill:#220800;stroke:#000000;stroke-width:1px;stroke-linecap:butt;stroke-linejoin:miter;stroke-opacity:1;fill-opacity:1"
       d="M 340,480 520,580 z"
       id="path4141"
       inkscape:connector-curvature="0"
       transform="translate(0,152.36218)" />
    <path
       style="fill:none;stroke:#000000;stroke-width:1px;stroke-linecap:butt;stroke-linejoin:miter;stroke-opacity:1"
       d="M 340,580 520,480 z"
       id="path4143"
       inkscape:connector-curvature="0"
       transform="translate(0,152.36218)" />
    <path
       style="fill:none;stroke:#000000;stroke-width:1px;stroke-linecap:butt;stroke-linejoin:miter;stroke-opacity:1"
       d="M 600,400 760,520 z"
       id="path4145"
       inkscape:connector-curvature="0"
       transform="translate(0,152.36218)" />
    <path
       style="fill:none;stroke:#000000;stroke-width:1px;stroke-linecap:butt;stroke-linejoin:miter;stroke-opacity:1"
       d="M 600,520 760,400 z"
       id="path4147"
       inkscape:connector-curvature="0"
       transform="translate(0,152.36218)" />
    <path
       style="fill:none;stroke:#000000;stroke-width:1px;stroke-linecap:butt;stroke-linejoin:miter;stroke-opacity:1"
       d="m 980,380 80,180 z"
       id="path4149"
       inkscape:connector-curvature="0"
       transform="translate(0,152.36218)" />
    <path
       style="fill:none;stroke:#000000;stroke-width:1px;stroke-linecap:butt;stroke-linejoin:miter;stroke-opacity:1"
       d="M 1060,380 980,560 z"
       id="path4151"
       inkscape:connector-curvature="0"
       transform="translate(0,152.36218)" />
    <path
       style="fill:none;stroke:#000000;stroke-width:1px;stroke-linecap:butt;stroke-linejoin:miter;stroke-opacity:1"
       d="m 800,660 200,40 z"
       id="path4153"
       inkscape:connector-curvature="0"
       transform="translate(0,152.36218)" />
    <path
       style="fill:none;stroke:#000000;stroke-width:1px;stroke-linecap:butt;stroke-linejoin:miter;stroke-opacity:1"
       d="m 800,700 200,-40 z"
       id="path4155"
       inkscape:connector-curvature="0"
       transform="translate(0,152.36218)" />
    <path
       style="fill:none;stroke:#000000;stroke-width:1px;stroke-linecap:butt;stroke-linejoin:miter;stroke-opacity:1"
       d="M 380,700 660,800 z"
       id="path4157"
       inkscape:connector-curvature="0"
       transform="translate(0,152.36218)" />
    <path
       style="fill:none;stroke:#000000;stroke-width:1px;stroke-linecap:butt;stroke-linejoin:miter;stroke-opacity:1"
       d="M 660,700 380,800 z"
       id="path4159"
       inkscape:connector-curvature="0"
       transform="translate(0,152.36218)" />
    <path
       style="fill:none;stroke:#000000;stroke-width:1px;stroke-linecap:butt;stroke-linejoin:miter;stroke-opacity:1"
       d="m 380,220 80,80 z"
       id="path4669"
       inkscape:connector-curvature="0"
       transform="translate(0,152.36218)" />
    <path
       style="fill:none;stroke:#000000;stroke-width:1px;stroke-linecap:butt;stroke-linejoin:miter;stroke-opacity:1"
       d="m 380,300 80,-80 z"
       id="path4671"
       inkscape:connector-curvature="0"
       transform="translate(0,152.36218)" />
    <path
       style="fill:none;stroke:#000000;stroke-width:1px;stroke-linecap:butt;stroke-linejoin:miter;stroke-opacity:1"
       d="m 560,220 80,80 z"
       id="path4673"
       inkscape:connector-curvature="0"
       transform="translate(0,152.36218)" />
    <path
       style="fill:none;stroke:#000000;stroke-width:1px;stroke-linecap:butt;stroke-linejoin:miter;stroke-opacity:1"
       d="m 640,220 -80,80 z"
       id="path4675"
       inkscape:connector-curvature="0"
       transform="translate(0,152.36218)" />
    <path
       style="fill:none;stroke:#000000;stroke-width:1px;stroke-linecap:butt;stroke-linejoin:miter;stroke-opacity:1"
       d="m 760,220 80,80 z"
       id="path4677"
       inkscape:connector-curvature="0"
       transform="translate(0,152.36218)" />
    <path
       style="fill:none;stroke:#000000;stroke-width:1px;stroke-linecap:butt;stroke-linejoin:miter;stroke-opacity:1"
       d="m 760,300 80,-80 z"
       id="path4679"
       inkscape:connector-curvature="0"
       transform="translate(0,152.36218)" />
    <path
       style="fill:none;stroke:#000000;stroke-width:1px;stroke-linecap:butt;stroke-linejoin:miter;stroke-opacity:1"
       d="m 940,220 80,80 z"
       id="path4681"
       inkscape:connector-curvature="0"
       transform="translate(0,152.36218)" />
    <path
       style="fill:none;stroke:#000000;stroke-width:1px;stroke-linecap:butt;stroke-linejoin:miter;stroke-opacity:1"
       d="m 1020,220 -80,80 z"
       id="path4683"
       inkscape:connector-curvature="0"
       transform="translate(0,152.36218)" />
    <path
       style="fill:none;stroke:#000000;stroke-width:1px;stroke-linecap:butt;stroke-linejoin:miter;stroke-opacity:1"
       d="m 1060,100 200,100 -200,-100 0,100 200,-100 -200,100 200,-100"
       id="path4685"
       inkscape:connector-curvature="0"
       transform="translate(0,152.36218)" />
    <path
       style="fill:none;stroke:#000000;stroke-width:1px;stroke-linecap:butt;stroke-linejoin:miter;stroke-opacity:1"
       d="M 120,100 340,200 z"
       id="path4687"
       inkscape:connector-curvature="0"
       transform="translate(0,152.36218)" />
    <path
       style="fill:none;stroke:#000000;stroke-width:1px;stroke-linecap:butt;stroke-linejoin:miter;stroke-opacity:1"
       d="M 120,200 340,100 z"
       id="path4689"
       inkscape:connector-curvature="0"
       transform="translate(0,152.36218)" />
    <path
       style="opacity:0.275;fill:#322200;fill-opacity:1"
       d="m 481.23077,79.615237 0,-58.846154 218.94231,0 218.9423,0 0,58.846154 0,58.846153 -218.9423,0 -218.94231,0 0,-58.846153 z"
       id="path4691"
       inkscape:connector-curvature="0"
       transform="translate(0,152.36218)" />
    <path
       style="opacity:0.275;fill:#322200;fill-opacity:1"
       d="m 481.23077,79.615237 0,-58.846154 218.94231,0 218.9423,0 0,58.846154 0,58.846153 -218.9423,0 -218.94231,0 0,-58.846153 z"
       id="path4693"
       inkscape:connector-curvature="0"
       transform="translate(0,152.36218)" />
    <path
       style="opacity:0.275;fill:#322200;fill-opacity:1"
       d="m 481.23077,79.615237 0,-58.846154 218.94231,0 218.9423,0 0,58.846154 0,58.846153 -218.9423,0 -218.94231,0 0,-58.846153 z"
       id="path4695"
       inkscape:connector-curvature="0"
       transform="translate(0,152.36218)" />
    <path
       style="opacity:0.275;fill:#322200;fill-opacity:1"
       d="m 481.23077,79.615237 0,-58.846154 218.94231,0 218.9423,0 0,58.846154 0,58.846153 -218.9423,0 -218.94231,0 0,-58.846153 z"
       id="path4697"
       inkscape:connector-curvature="0"
       transform="translate(0,152.36218)" />
    <path
       style="opacity:0.275;fill:#322200;fill-opacity:1"
       d="m 481.23077,79.615237 0,-58.846154 218.94231,0 218.9423,0 0,58.846154 0,58.846153 -218.9423,0 -218.94231,0 0,-58.846153 z"
       id="path4699"
       inkscape:connector-curvature="0"
       transform="translate(0,152.36218)" />
    <path
       style="opacity:0.275;fill:#322200;fill-opacity:1"
       d="m 1112.9613,124.49842 -47.5959,-23.92727 95.0481,-0.0933 c 52.2764,-0.0513 94.7235,0.20946 94.3269,0.57956 -0.3966,0.3701 -21.7501,11.17937 -47.4522,24.02061 l -46.731,23.3477 -47.5959,-23.92726 z"
       id="path4701"
       inkscape:connector-curvature="0"
       transform="translate(0,152.36218)" />
    <path
       style="opacity:0.275;fill:#322200;fill-opacity:1"
       d="m 1061.0385,149.70521 0,-47.60234 47.1634,23.56405 c 25.9399,12.96023 47.4429,23.82172 47.7843,24.13664 0.6091,0.5617 -92.3487,47.50398 -94.07,47.50398 -0.4828,0 -0.8777,-21.42105 -0.8777,-47.60233 z"
       id="path4703"
       inkscape:connector-curvature="0"
       transform="translate(0,152.36218)" />
    <path
       style="opacity:0.275;fill:#322200;fill-opacity:1"
       d="m 1112.5288,175.15697 47.1635,-23.68534 47.1635,23.68534 47.1634,23.68533 -94.3269,0 -94.3269,0 47.1634,-23.68533 0,0 z"
       id="path4705"
       inkscape:connector-curvature="0"
       transform="translate(0,152.36218)" />
    <path
       style="opacity:0.275;fill:#322200;fill-opacity:1"
       d="m 1210.3089,173.40571 -47.172,-23.71514 47.6128,-23.78767 c 26.1871,-13.08321 47.9986,-23.78766 48.47,-23.78766 0.4715,0 0.8572,21.41827 0.8572,47.59615 0,26.17789 -0.5841,47.55415 -1.2981,47.50281 -0.7139,-0.0513 -22.5254,-10.76516 -48.4699,-23.80849 z"
       id="path4707"
       inkscape:connector-curvature="0"
       transform="translate(0,152.36218)" />
    <path
       style="opacity:0.275;fill:#322200;fill-opacity:1"
       d="m 195.22115,132.65425 -34.18269,-15.63222 0,-8.31878 0,-8.31878 78.75,0 78.75,0 0,3.91826 c 0,3.44594 -5.26793,6.29738 -43.70192,23.65508 -24.03606,10.85525 -44.09135,19.86998 -44.56731,20.03274 -0.47596,0.16275 -16.2476,-6.73858 -35.04808,-15.3363 z"
       id="path4709"
       inkscape:connector-curvature="0"
       transform="translate(0,152.36218)" />
    <path
       style="opacity:0.275;fill:#322200;fill-opacity:1"
       d="m 276.2516,169.34597 c -22.78182,-10.35303 -41.60585,-19.00805 -41.83117,-19.23338 -0.22533,-0.22533 18.24564,-8.88417 41.0466,-19.24186 22.80097,-10.35769 41.83521,-18.45325 42.29833,-17.99014 0.46311,0.46312 0.6318,17.59262 0.37487,38.06555 l -0.46715,37.22352 -41.42148,-18.82369 z"
       id="path4711"
       inkscape:connector-curvature="0"
       transform="translate(0,152.36218)" />
    <path
       style="opacity:0.275;fill:#322200;fill-opacity:1"
       d="m 328.49038,193.35317 -8.22115,-3.60932 0,-39.44294 0,-39.44293 5.18056,-2.67898 c 2.84931,-1.47343 7.13296,-3.42127 9.51923,-4.32853 l 4.33867,-1.64956 0,47.55332 c 0,26.15432 -0.58413,47.47568 -1.29807,47.38079 -0.71395,-0.0949 -4.9976,-1.79672 -9.51924,-3.78185 z"
       id="path4713"
       inkscape:connector-curvature="0"
       transform="translate(0,152.36218)" />
    <path
       style="opacity:0.275;fill:#322200;fill-opacity:1"
       d="m 161.08374,190.81716 0.0453,-8.22115 32.25701,-14.5149 c 17.74135,-7.9832 33.49261,-14.83753 35.0028,-15.23184 1.51019,-0.39432 22.21695,8.13554 46.01503,18.95525 35.69805,16.22999 43.366,20.33376 43.8223,23.453 l 0.55306,3.78079 -78.87037,0 -78.87038,0 0.0453,-8.22115 z"
       id="path4715"
       inkscape:connector-curvature="0"
       transform="translate(0,152.36218)" />
    <path
       style="opacity:0.275;fill:#322200;fill-opacity:1"
       d="m 161.03846,150.4667 c 0,-16.12215 0.40586,-29.313 0.90191,-29.313 1.0442,0 57.0425,25.27825 61.21285,27.63215 2.21356,1.24942 0.82479,2.45186 -6.73014,5.82719 -5.23558,2.33911 -19.83895,8.95851 -32.45193,14.70979 l -22.93269,10.45688 0,-29.31301 z"
       id="path4717"
       inkscape:connector-curvature="0"
       transform="translate(0,152.36218)" />
    <path
       style="opacity:0.275;fill:#322200;fill-opacity:1"
       d="m 121.23077,149.86029 0,-47.44726 8.65385,3.65615 8.65384,3.65614 0,39.98469 0,39.98469 -7.83476,3.80642 c -4.30912,2.09353 -8.20335,3.80642 -8.65385,3.80642 -0.45049,0 -0.81908,-21.35126 -0.81908,-47.44725 z"
       id="path4719"
       inkscape:connector-curvature="0"
       transform="translate(0,152.36218)" />
    <path
       style="opacity:0.275;fill:#322200;fill-opacity:1"
       d="m 140.26923,149.95358 0,-38.98858 9.08654,4.00852 9.08654,4.00852 0.45881,30.9416 0.45881,30.9416 -8.18954,3.46154 c -4.50425,1.90384 -8.79966,3.72115 -9.54535,4.03846 -0.7457,0.31731 -1.35581,-16.96794 -1.35581,-38.41166 z"
       id="path4721"
       inkscape:connector-curvature="0"
       transform="translate(0,152.36218)" />
    <path
       style="opacity:0.275;fill:#322200;fill-opacity:1"
       d="m 231.0691,475.45117 c -1.64497,-6.55408 2.20768,-31.08924 6.79593,-43.27909 10.01739,-26.61375 28.41385,-46.89265 53.65915,-59.14988 8.67036,-4.20968 18.29553,-8.14489 21.38928,-8.7449 l 5.625,-1.09095 0,58.11829 0,58.11829 -43.23625,0 -43.23626,0 -0.99685,-3.97176 z"
       id="path4723"
       inkscape:connector-curvature="0"
       transform="translate(0,152.36218)" />
    <path
       style="opacity:0.275;fill:#322200;fill-opacity:1"
       d="m 232.03005,469.47101 c 0.1192,-39.47148 22.6689,-76.03813 58.14446,-94.28718 8.46075,-4.35231 18.30386,-8.70757 21.87357,-9.67836 l 6.49038,-1.76505 0,57.84125 0,57.84126 -43.26923,0 -43.26923,0 0.03,-9.95192 z"
       id="path4725"
       inkscape:connector-curvature="0"
       transform="translate(0,152.36218)" />
    <path
       style="opacity:0.275;fill:#322200;fill-opacity:1"
       d="m 221.61538,419.71139 0,-59.71154 48.89424,0.0844 48.89423,0.0844 -13.84616,4.75853 c -19.54501,6.71708 -29.25612,12.84305 -44.14367,27.84679 -20.37539,20.5344 -30.90457,45.01317 -31.6641,73.61427 -0.32552,12.25779 -0.57741,13.03204 -4.2403,13.03329 l -3.89424,0.001 0,-59.71154 z"
       id="path4727"
       inkscape:connector-curvature="0"
       transform="translate(0,152.36218)" />
    <path
       style="opacity:0.275;fill:#322200;fill-opacity:1"
       d="m 221.61538,419.45222 0,-59.97071 15.84282,1.12456 c 8.71354,0.6185 28.76883,1.16474 44.5673,1.21385 l 28.7245,0.0893 -9.51923,3.80947 c -16.39088,6.55942 -23.869,11.30879 -36.36052,23.09265 -22.14258,20.88819 -33.24354,43.81286 -35.68038,73.6838 -1.05965,12.9892 -2.48367,16.82385 -6.27641,16.90129 -0.71394,0.0146 -1.29808,-26.96032 -1.29808,-59.94421 z"
       id="path4729"
       inkscape:connector-curvature="0"
       transform="translate(0,152.36218)" />
    <path
       style="opacity:0.275;fill:#322200;fill-opacity:1"
       d="m 387.32948,1017.5439 c -17.25798,-4.0674 -34.25217,-18.00611 -41.65193,-34.16308 -5.80849,-12.6825 -5.32079,-34.20912 1.08522,-47.9002 20.85319,-44.56802 83.69395,-45.4401 105.97268,-1.47064 4.55611,8.99198 5.12993,11.86689 5.12993,25.70141 0,13.23598 -0.68215,17.0075 -4.53915,25.09615 -7.72537,16.20116 -21.44264,27.44376 -39.09447,32.04146 -10.89527,2.8378 -17.12679,2.9988 -26.90228,0.6949 l 0,0 z"
       id="path4731"
       inkscape:connector-curvature="0"
       transform="translate(0,152.36218)" />
    <path
       style="opacity:0.275;fill:#322200;fill-opacity:1"
       d="m 381.41963,1014.6824 c -17.682,-7.471 -33.13848,-23.42238 -36.81823,-37.99704 -9.70491,-38.43896 16.55089,-73.52054 55.21066,-73.76947 22.86241,-0.14722 41.87655,11.74764 52.15569,32.62753 5.02203,10.20119 5.34333,11.97173 4.75603,26.20797 -0.49131,11.90928 -1.55981,17.09678 -4.85751,23.58291 -5.33018,10.48376 -18.33202,22.746 -29.03347,27.3819 -11.57831,5.0158 -31.91088,5.9811 -41.41317,1.9662 z"
       id="path4733"
       inkscape:connector-curvature="0"
       transform="translate(0,152.36218)" />
    <path
       style="opacity:0.275;fill:#322200;fill-opacity:1"
       d="m 377.63522,1011.4352 c -11.83639,-5.8983 -25.45782,-19.29004 -29.94965,-29.44458 -8.25631,-18.66477 -2.7461,-46.27729 12.20663,-61.16924 28.38716,-28.27179 74.63268,-19.99095 91.75226,16.42938 5.5831,11.87753 5.17031,35.12179 -0.83783,47.17855 -13.15177,26.39219 -48.34065,39.37959 -73.17141,27.00589 z"
       id="path4735"
       inkscape:connector-curvature="0"
       transform="translate(0,152.36218)" />
    <path
       style="opacity:0.275;fill:#322200;fill-opacity:1"
       d="m 390.09494,1014.1542 c -10.83533,-2.1366 -20.17072,-7.5597 -29.72956,-17.27052 -12.36417,-12.56073 -14.99024,-18.792 -14.97095,-35.52373 0.0141,-12.23025 0.70961,-15.33715 5.70468,-25.48358 20.43879,-41.51707 80.7262,-40.32889 99.43244,1.95967 4.87727,11.02589 4.90446,32.66335 0.0548,43.62678 -10.11854,22.87468 -36.89355,37.34468 -60.49142,32.69138 l 0,0 z"
       id="path4737"
       inkscape:connector-curvature="0"
       transform="translate(0,152.36218)" />
    <path
       style="opacity:0.275;fill:#322200;fill-opacity:1"
       d="m 687.57743,1017.6778 c -23.82901,-4.9958 -42.98466,-26.25579 -46.23813,-51.31769 -2.55393,-19.67329 8.66053,-43.60132 25.69121,-54.81674 11.25656,-7.41291 18.95587,-9.90827 31.01598,-10.05232 25.16916,-0.30063 44.58307,11.74339 55.24532,34.27314 14.41314,30.45552 -1.4617,68.58591 -33.09127,79.48311 -9.45561,3.2578 -23.63743,4.3143 -32.62311,2.4305 z"
       id="path4739"
       inkscape:connector-curvature="0"
       transform="translate(0,152.36218)" />
    <path
       style="opacity:0.275;fill:#322200;fill-opacity:1"
       d="m 679.0838,1014.1766 c -11.398,-4.5285 -24.71289,-17.12219 -31.05104,-29.36906 -4.2726,-8.25572 -4.92973,-11.47191 -4.95079,-24.23076 -0.0206,-12.51562 0.67442,-16.13417 4.65663,-24.24241 5.99245,-12.20132 16.72284,-23.0048 28.64044,-28.83554 11.64957,-5.6996 29.29874,-6.36602 43.28517,-1.63441 24.98596,8.45276 41.90888,37.89106 36.77706,63.97563 -3.76307,19.12729 -13.13398,32.09765 -29.4875,40.81405 -14.24797,7.5941 -33.96966,9.0453 -47.86997,3.5225 z"
       id="path4741"
       inkscape:connector-curvature="0"
       transform="translate(0,152.36218)" />
    <path
       style="opacity:0.275;fill:#322200;fill-opacity:1"
       d="m 682.86538,1014.6915 c -6.91537,-1.7347 -21.68451,-13.0459 -27.656,-21.18065 -8.95813,-12.20342 -11.28648,-19.0763 -11.28494,-33.31118 0.002,-15.5381 6.07539,-29.61478 17.53758,-40.64586 11.46774,-11.03641 22.04758,-15.17893 38.71106,-15.15727 17.58624,0.0229 28.66648,4.64074 39.86739,16.61542 11.7388,12.54973 15.45998,21.88765 15.49134,38.87393 0.0233,12.63458 -0.57298,15.19469 -6.03181,25.89639 -10.17589,19.94922 -28.17701,30.38942 -51.68914,29.97832 -6.31616,-0.1104 -13.04163,-0.5915 -14.94548,-1.0691 z"
       id="path4743"
       inkscape:connector-curvature="0"
       transform="translate(0,152.36218)" />
    <path
       style="opacity:0.275;fill:#322200;fill-opacity:1"
       d="m 674.95753,1009.4051 c -19.40907,-12.48181 -29.43122,-28.39527 -29.60637,-47.00989 -0.18018,-19.14803 5.57132,-31.84365 20.2992,-44.80765 19.14503,-16.85213 50.45994,-16.65727 69.46762,0.43227 12.55918,11.29178 18.2851,22.98796 19.22803,39.2766 0.67269,11.62023 0.2015,14.53552 -3.74127,23.14767 -6.3747,13.92418 -13.27173,21.9325 -23.91013,27.7627 -8.09701,4.4374 -11.31174,5.1243 -26.52153,5.6666 -16.69575,0.5953 -17.58729,0.4374 -25.21555,-4.4683 l 0,0 z"
       id="path4745"
       inkscape:connector-curvature="0"
       transform="translate(0,152.36218)" />
    <path
       style="opacity:0.275;fill:#322200;fill-opacity:1"
       d="m 985.23133,1017.0098 c -10.22312,-2.5882 -25.45663,-12.2822 -30.92606,-19.67997 -8.39805,-11.35898 -11.54598,-20.10704 -12.29112,-34.1569 -1.01749,-19.1853 3.46831,-31.08163 16.71511,-44.32843 30.33371,-30.33371 79.01704,-20.19452 96.49894,20.09766 4.8704,11.22529 4.2084,32.26181 -1.3955,44.34233 -12.3882,26.70581 -40.9217,40.73321 -68.60137,33.72531 z"
       id="path4747"
       inkscape:connector-curvature="0"
       transform="translate(0,152.36218)" />
    <path
       style="opacity:0.275;fill:#322200;fill-opacity:1"
       d="m 979.22262,1013.6191 c -13.51491,-5.7156 -23.69212,-14.43322 -29.8688,-25.58502 -4.8282,-8.71715 -5.14228,-10.44708 -5.14228,-28.32269 0,-18.93106 0.0351,-19.0925 6.23067,-28.618 12.24579,-18.82765 29.26951,-28.61455 49.15394,-28.25849 30.59895,0.54792 54.90215,21.94972 57.50355,50.63856 3.0803,33.96976 -20.757,61.65014 -54.7817,63.61374 -11.09104,0.64 -14.64248,0.1067 -23.09538,-3.4681 z"
       id="path4749"
       inkscape:connector-curvature="0"
       transform="translate(0,152.36218)" />
    <path
       style="opacity:0.275;fill:#322200;fill-opacity:1"
       d="m 982.28846,1013.9361 c -15.49476,-5.8369 -29.04095,-18.11625 -34.56183,-31.32959 -3.73565,-8.94067 -3.62505,-37.62429 0.17596,-45.63433 4.74576,-10.00094 17.45987,-22.63376 27.9775,-27.79862 8.38679,-4.11847 11.95053,-4.83403 23.71606,-4.76191 22.20065,0.13609 40.21035,10.43957 50.14145,28.68638 6.9753,12.81585 8.1363,32.51214 2.7571,46.77179 -8.1621,21.63638 -26.7995,34.56488 -51.1678,35.49418 -7.61536,0.2904 -16.18267,-0.3522 -19.03844,-1.4279 z"
       id="path4751"
       inkscape:connector-curvature="0"
       transform="translate(0,152.36218)" />
    <path
       style="opacity:0.275;fill:#322200;fill-opacity:1"
       d="m 977.09615,1010.5842 c -12.3902,-6.6261 -21.24274,-15.11145 -26.0797,-24.99784 -4.07279,-8.32449 -4.68079,-11.67226 -4.68079,-25.77363 0,-13.12899 0.71849,-17.69063 3.78367,-24.02245 4.87237,-10.06497 16.88258,-21.08016 29.06596,-26.65789 8.48822,-3.88604 11.19267,-4.2956 23.01471,-3.4853 22.9924,1.57594 38.1952,11.22246 46.9924,29.8178 9.0698,19.17148 5.8006,45.421 -7.5449,60.58237 -10.361,11.77074 -22.9236,17.07474 -41.95443,17.71334 -13.34051,0.4477 -16.70446,-0.025 -22.59692,-3.1764 z"
       id="path4753"
       inkscape:connector-curvature="0"
       transform="translate(0,152.36218)" />
    <rect
       style="opacity:0.275;fill:#322200;fill-opacity:1"
       id="rect4755"
       width="600"
       height="120"
       x="400"
       y="1140"
       transform="translate(0,152.36218)" />
    <rect
       style="opacity:0.275;fill:#322200;fill-opacity:1"
       id="rect4757"
       width="280"
       height="120"
       x="1040"
       y="1260"
       transform="translate(0,152.36218)" />
    <rect
       style="opacity:0.275;fill:#322200;fill-opacity:1"
       id="rect4757-5"
       width="280"
       height="120"
       x="80"
       y="1412.3622" />
    <path
       sodipodi:type="arc"
       style="opacity:0.275;fill:#322200;fill-opacity:1"
       id="path4777"
       sodipodi:cx="700"
       sodipodi:cy="1700"
       sodipodi:rx="360"
       sodipodi:ry="300"
       d="m 1060,1700 a 360,300 0 1 1 -720,0 360,300 0 1 1 720,0 z"
       transform="translate(0,152.36218)" />
    <rect
       style="opacity:0.275;fill:#322200;fill-opacity:1"
       id="rect4779"
       width="260"
       height="260"
       x="360"
       y="1480"
       transform="translate(0,152.36218)" />
    <path
       style="opacity:0.275;fill:#322200;fill-opacity:1"
       d="m 360.45332,1669.7595 0.48899,-69.6635 7.4642,-14.7115 c 16.55072,-32.6206 41.94606,-65.1581 70.36613,-90.1558 l 15.56472,-13.6904 82.67747,0 82.67748,0 0,128.9423 0,128.9423 -129.86399,0 -129.864,0 0.489,-69.6634 0,0 z"
       id="path4781"
       inkscape:connector-curvature="0"
       transform="translate(0,152.36218)" />
    <path
       style="opacity:0.275;fill:#322200;fill-opacity:1"
       d="m 361.33912,1669.7595 0.8297,-69.6635 9.51589,-18.1731 c 15.93675,-30.4353 39.92881,-60.9612 67.44684,-85.8146 l 16.132,-14.57 82.21438,0 82.21438,0 0,128.9423 0,128.9423 -129.59145,0 -129.59145,0 0.82971,-69.6634 0,0 z"
       id="path4783"
       inkscape:connector-curvature="0"
       transform="translate(0,152.36218)" />
    <path
       style="opacity:0.275;fill:#322200;fill-opacity:1"
       d="m 362.07777,1669.7595 0.67062,-69.6635 7.46405,-13.8461 c 17.69457,-32.8243 41.00218,-62.8617 69.12087,-89.0787 l 16.76679,-15.6329 81.79611,0 81.7961,0 0,128.9423 0,128.9423 -129.14258,0 -129.14258,0 0.67062,-69.6634 0,0 z"
       id="path4785"
       inkscape:connector-curvature="0"
       transform="translate(0,152.36218)" />
    <path
       style="opacity:0.275;fill:#322200;fill-opacity:1"
       d="m 360.13302,1539.9518 -0.0561,-58.4135 45.87637,0 45.87637,0 -13.47658,11.8754 c -30.55988,26.929 -54.51057,57.879 -72.51098,93.7015 l -5.65299,11.25 -0.0561,-58.4134 0,0 z"
       id="path4787"
       inkscape:connector-curvature="0"
       transform="translate(0,152.36218)" />
    <path
       style="opacity:0.275;fill:#322200;fill-opacity:1"
       d="m 361.20995,1575.3968 c -0.61331,-9.2616 -1.11915,-34.1686 -1.12407,-55.3489 l -0.009,-38.5096 45.4327,0.055 c 39.93316,0.048 45.03386,0.3569 42.13789,2.5487 -5.98802,4.5321 -32.49392,30.9644 -41.64649,41.5308 -12.61757,14.5668 -24.35512,31.5945 -34.76087,50.4278 l -8.91507,16.1354 -1.11513,-16.8393 z"
       id="path4789"
       inkscape:connector-curvature="0"
       transform="translate(0,152.36218)" />
    <path
       style="opacity:0.275;fill:#322200;fill-opacity:1"
       d="m 362.83367,1585.1572 c -0.4146,-1.3029 -1.25532,-25.1501 -1.86827,-52.9939 l -1.11445,-50.625 16.1226,0.01 c 8.86743,0 28.30736,0.5111 43.19983,1.1288 l 27.07723,1.1231 -20.15415,20.1444 c -23.16813,23.1569 -35.91693,39.3095 -51.48598,65.2322 -6.06265,10.0944 -11.36222,17.2875 -11.77681,15.9846 z"
       id="path4791"
       inkscape:connector-curvature="0"
       transform="translate(0,152.36218)" />
    <rect
       style="opacity:0.275;fill:#322200;fill-opacity:1"
       id="rect4793"
       width="300"
       height="440"
       x="700"
       y="1480"
       transform="translate(0,152.36218)" />
    <rect
       style="opacity:0.275;fill:#322200;fill-opacity:1"
       id="rect4795"
       width="300"
       height="80"
       x="540"
       y="1360"
       transform="translate(0,152.36218)" />
    <path
       style="fill:none;stroke:#000000;stroke-width:1px;stroke-linecap:butt;stroke-linejoin:miter;stroke-opacity:1"
       d="m 360,1480 260,260 z"
       id="path4797"
       inkscape:connector-curvature="0"
       transform="translate(0,152.36218)" />
    <path
       style="fill:none;stroke:#000000;stroke-width:1px;stroke-linecap:butt;stroke-linejoin:miter;stroke-opacity:1"
       d="M 620,1480 380,1740 z"
       id="path4799"
       inkscape:connector-curvature="0"
       transform="translate(0,152.36218)" />
    <path
       style="opacity:0.275;fill:#322200;fill-opacity:1"
       d="m 701.03846,1700.4806 0,-218.9423 122.45192,0 122.45193,0 15.85833,14.2777 c 8.72207,7.8528 20.59947,19.6506 26.39423,26.2173 l 10.5359,11.9394 0,166.1341 0,166.1341 -11.68269,13.0627 c -6.42548,7.1845 -18.66242,19.1499 -27.19319,26.5899 l -15.51048,13.5272 -121.65298,0 -121.65297,0 0,-218.9423 z"
       id="path4801"
       inkscape:connector-curvature="0"
       transform="translate(0,152.36218)" />
    <path
       style="opacity:0.275;fill:#322200;fill-opacity:1"
       d="m 701.03846,1700.4806 0,-218.9423 122.22513,0 122.22514,0 26.62101,26.2757 26.62103,26.2757 0,165.6644 0,165.6643 -12.54808,13.4368 c -6.90144,7.3901 -19.35635,19.5412 -27.67756,27.0022 l -15.12948,13.5655 -121.1686,0 -121.16859,0 0,-218.9423 z"
       id="path4803"
       inkscape:connector-curvature="0"
       transform="translate(0,152.36218)" />
    <path
       style="opacity:0.275;fill:#322200;fill-opacity:1"
       d="m 701.03846,1700.4806 0,-218.9423 121.58654,0.011 121.58654,0.011 27.25961,27.1462 27.25962,27.1462 0,164.7439 0,164.7438 -27.7466,27.041 -27.74659,27.041 -121.09956,0 -121.09956,0 0,-218.9423 z"
       id="path4805"
       inkscape:connector-curvature="0"
       transform="translate(0,152.36218)" />
    <path
       style="opacity:0.275;fill:#322200;fill-opacity:1"
       d="m 701.03846,1700.4806 0,-218.9423 121.60683,0 121.60682,0 27.23933,27.2793 27.23933,27.2793 0,164.4695 0,164.4695 -28.41965,27.1935 -28.41964,27.1935 -120.42651,0 -120.42651,0 0,-218.9423 z"
       id="path4807"
       inkscape:connector-curvature="0"
       transform="translate(0,152.36218)" />
    <path
       style="opacity:0.275;fill:#322200;fill-opacity:1"
       d="m 701.03846,1700.4806 0,-218.9423 120.70205,0 120.70206,0 28.14409,28.1053 28.14411,28.1054 -0.14635,163.5773 -0.14636,163.5774 -28.6241,27.2596 -28.6241,27.2596 -120.0757,0 -120.0757,0 0,-218.9423 z"
       id="path4809"
       inkscape:connector-curvature="0"
       transform="translate(0,152.36218)" />
    <path
       style="opacity:0.275;fill:#322200;fill-opacity:1"
       d="m 701.03846,1700.4806 0,-218.9423 120.70205,0 120.70206,0 28.14409,28.1053 28.14411,28.1054 0.0759,162.7119 0.0759,162.712 -29.06631,28.0852 -29.0663,28.0851 -119.85577,0.04 -119.85577,0.04 0,-218.9423 z"
       id="path4811"
       inkscape:connector-curvature="0"
       transform="translate(0,152.36218)" />
    <path
       style="opacity:0.275;fill:#322200;fill-opacity:1"
       d="m 701.03846,1700.4806 0,-218.9423 120.70205,0 120.70206,0 28.14409,28.1053 28.14411,28.1054 0,162.8472 0,162.8471 -29.27053,27.9898 -29.27052,27.9898 -119.57563,0 -119.57563,0 0,-218.9423 z"
       id="path4813"
       inkscape:connector-curvature="0"
       transform="translate(0,152.36218)" />
    <path
       style="opacity:0.275;fill:#322200;fill-opacity:1"
       d="m 701.03846,1700.4806 0,-218.9423 120.70205,0 120.70206,0 28.14409,28.1053 28.14411,28.1054 -0.0392,162.7119 -0.0392,162.712 -29.23581,28.125 -29.23583,28.125 -119.57116,0 -119.57116,0 0,-218.9423 z"
       id="path4815"
       inkscape:connector-curvature="0"
       transform="translate(0,152.36218)" />
    <path
       style="opacity:0.275;fill:#322200;fill-opacity:1"
       d="m 701.03846,1700.4806 0,-218.9423 120.70205,0 120.70206,0 28.14409,28.1053 28.14411,28.1054 -0.12704,162.7119 -0.12704,162.712 -29.45596,28.125 -29.45596,28.125 -119.26309,0 -119.26322,0 0,-218.9423 z"
       id="path4817"
       inkscape:connector-curvature="0"
       transform="translate(0,152.36218)" />
    <path
       style="opacity:0.27500000000000002;fill:#424200;fill-opacity:1"
       d="m 701.03846,1700.4806 0,-218.9423 120.70205,0 120.70206,0 28.14409,28.1053 28.14411,28.1054 0,162.1008 0,162.1008 -29.60093,28.7362 -29.60093,28.7361 -119.24522,0 -119.24523,0 0,-218.9423 z"
       id="path4819"
       inkscape:connector-curvature="0"
       transform="translate(0,152.36218)" />
    <path
       style="opacity:0.275;fill:#322200;fill-opacity:1"
       d="m 981.42308,1512.8869 c -9.04327,-9.3581 -20.25148,-20.2398 -24.90714,-24.1816 l -8.46483,-7.167 25.33983,0 25.33983,0 0,24.2308 c 0,13.3269 -0.19471,24.2086 -0.43269,24.1816 -0.23798,-0.027 -7.83173,-7.7058 -16.875,-17.0638 z"
       id="path4821"
       inkscape:connector-curvature="0"
       transform="translate(0,152.36218)" />
    <path
       style="opacity:0.275;fill:#322200;fill-opacity:1"
       d="m 973.23453,1504.0599 -22.90009,-22.5216 24.19816,0 24.19817,0 -0.17117,13.4135 c -0.0941,7.3774 -0.67828,17.5121 -1.29808,22.5216 l -1.1269,9.1081 -22.90009,-22.5216 z"
       id="path4823"
       inkscape:connector-curvature="0"
       transform="translate(0,152.36218)" />
    <path
       style="opacity:0.275;fill:#322200;fill-opacity:1"
       d="m 972.63674,1502.4365 -21.50212,-20.7322 23.58997,-0.083 23.58998,-0.083 -0.86312,19.4712 c -0.47471,10.7091 -1.41424,20.0759 -2.08785,20.8152 -0.67361,0.7392 -10.9007,-7.9855 -22.72686,-19.3882 l 0,0 z"
       id="path4825"
       inkscape:connector-curvature="0"
       transform="translate(0,152.36218)" />
    <path
       style="opacity:0.275;fill:#322200;fill-opacity:1"
       d="m 973.6066,1501.9586 c -21.46924,-20.4979 -21.57674,-20.1119 5.65302,-20.2986 L 997,1481.5383 l 0,11.0084 c 0,13.6639 -1.75833,27.0685 -3.55066,27.0685 -0.74217,0 -9.6714,-7.9455 -19.84274,-17.6566 z"
       id="path4827"
       inkscape:connector-curvature="0"
       transform="translate(0,152.36218)" />
    <path
       style="opacity:0.275;fill:#322200;fill-opacity:1"
       d="m 975.06179,1501.8034 c -9.34499,-9.0905 -16.60444,-16.8872 -16.13211,-17.3258 0.47233,-0.4387 9.31008,-1.3598 19.63946,-2.0469 l 18.78067,-1.2493 -1.22779,17.0534 c -0.67528,9.3795 -1.86714,17.7383 -2.64856,18.5753 -0.784,0.8397 -9.03598,-5.8862 -18.41167,-15.0067 l 0,0 z"
       id="path4829"
       inkscape:connector-curvature="0"
       transform="translate(0,152.36218)" />
    <path
       style="opacity:0.275;fill:#322200;fill-opacity:1"
       d="m 401.61538,1200.2883 0,-59.7115 298.5577,0 298.55769,0 0,59.7115 0,59.7116 -298.55769,0 -298.5577,0 0,-59.7116 z"
       id="path4831"
       inkscape:connector-curvature="0"
       transform="translate(0,152.36218)" />
    <path
       style="opacity:0.275;fill:#322200;fill-opacity:1"
       d="m 401.61538,1200.2883 0,-59.7115 298.5577,0 298.55769,0 0,59.7115 0,59.7116 -298.55769,0 -298.5577,0 0,-59.7116 z"
       id="path4833"
       inkscape:connector-curvature="0"
       transform="translate(0,152.36218)" />
    <path
       style="opacity:0.275;fill:#322200;fill-opacity:1"
       d="m 401.61538,1200.2883 0,-59.7115 298.5577,0 298.55769,0 0,59.7115 0,59.7116 -298.55769,0 -298.5577,0 0,-59.7116 z"
       id="path4835"
       inkscape:connector-curvature="0"
       transform="translate(0,152.36218)" />
    <path
       style="opacity:0.275;fill:#322200;fill-opacity:1"
       d="m 401.61538,1200.2883 0,-59.7115 298.5577,0 298.55769,0 0,59.7115 0,59.7116 -298.55769,0 -298.5577,0 0,-59.7116 z"
       id="path4837"
       inkscape:connector-curvature="0"
       transform="translate(0,152.36218)" />
    <path
       style="opacity:0.275;fill:#322200;fill-opacity:1"
       d="m 401.61538,1200.2883 0,-59.7115 298.5577,0 298.55769,0 0,59.7115 0,59.7116 -298.55769,0 -298.5577,0 0,-59.7116 z"
       id="path4839"
       inkscape:connector-curvature="0"
       transform="translate(0,152.36218)" />
    <path
       style="opacity:0.275;fill:#322200;fill-opacity:1"
       d="m 401.61538,1200.2883 0,-59.7115 298.5577,0 298.55769,0 0,59.7115 0,59.7116 -298.55769,0 -298.5577,0 0,-59.7116 z"
       id="path4841"
       inkscape:connector-curvature="0"
       transform="translate(0,152.36218)" />
    <path
       style="opacity:0.275;fill:#322200;fill-opacity:1"
       d="m 1040.2692,1319.7114 0,-59.7115 139.327,0 139.3269,0 0,59.7115 0,59.7115 -139.3269,0 -139.327,0 0,-59.7115 z"
       id="path4843"
       inkscape:connector-curvature="0"
       transform="translate(0,152.36218)" />
    <path
       style="opacity:0.275;fill:#322200;fill-opacity:1"
       d="m 1040.2692,1319.7114 0,-59.7115 139.327,0 139.3269,0 0,59.7115 0,59.7115 -139.3269,0 -139.327,0 0,-59.7115 z"
       id="path4845"
       inkscape:connector-curvature="0"
       transform="translate(0,152.36218)" />
    <path
       style="opacity:0.275;fill:#322200;fill-opacity:1"
       d="m 1040.2692,1319.7114 0,-59.7115 139.327,0 139.3269,0 0,59.7115 0,59.7115 -139.3269,0 -139.327,0 0,-59.7115 z"
       id="path4847"
       inkscape:connector-curvature="0"
       transform="translate(0,152.36218)" />
    <path
       style="opacity:0.275;fill:#322200;fill-opacity:1"
       d="m 1040.2692,1319.7114 0,-59.7115 139.327,0 139.3269,0 0,59.7115 0,59.7115 -139.3269,0 -139.327,0 0,-59.7115 z"
       id="path4849"
       inkscape:connector-curvature="0"
       transform="translate(0,152.36218)" />
    <path
       style="opacity:0.275;fill:#322200;fill-opacity:1"
       d="m 1040.2692,1319.7114 0,-59.7115 139.327,0 139.3269,0 0,59.7115 0,59.7115 -139.3269,0 -139.327,0 0,-59.7115 z"
       id="path4851"
       inkscape:connector-curvature="0"
       transform="translate(0,152.36218)" />
    <path
       style="opacity:0.275;fill:#322200;fill-opacity:1"
       d="m 81.423077,1319.7114 0,-59.7115 138.461543,0 138.46153,0 0,59.7115 0,59.7115 -138.46153,0 -138.461543,0 0,-59.7115 z"
       id="path4853"
       inkscape:connector-curvature="0"
       transform="translate(0,152.36218)" />
    <path
       style="opacity:0.275;fill:#322200;fill-opacity:1"
       d="m 81.423077,1319.7114 0,-59.7115 138.461543,0 138.46153,0 0,59.7115 0,59.7115 -138.46153,0 -138.461543,0 0,-59.7115 z"
       id="path4855"
       inkscape:connector-curvature="0"
       transform="translate(0,152.36218)" />
    <path
       style="opacity:0.275;fill:#322200;fill-opacity:1"
       d="m 81.423077,1319.7114 0,-59.7115 138.461543,0 138.46153,0 0,59.7115 0,59.7115 -138.46153,0 -138.461543,0 0,-59.7115 z"
       id="path4857"
       inkscape:connector-curvature="0"
       transform="translate(0,152.36218)" />
    <path
       style="opacity:0.275;fill:#322200;fill-opacity:1"
       d="m 81.423077,1319.7114 0,-59.7115 138.461543,0 138.46153,0 0,59.7115 0,59.7115 -138.46153,0 -138.461543,0 0,-59.7115 z"
       id="path4859"
       inkscape:connector-curvature="0"
       transform="translate(0,152.36218)" />
    <path
       style="opacity:0.275;fill:#322200;fill-opacity:1"
       d="m 81.423077,1319.7114 0,-59.7115 138.461543,0 138.46153,0 0,59.7115 0,59.7115 -138.46153,0 -138.461543,0 0,-59.7115 z"
       id="path4861"
       inkscape:connector-curvature="0"
       transform="translate(0,152.36218)" />
    <path
       style="opacity:0.275;fill:#322200;fill-opacity:1"
       d="m 81.423077,1319.7114 0,-59.7115 138.461543,0 138.46153,0 0,59.7115 0,59.7115 -138.46153,0 -138.461543,0 0,-59.7115 z"
       id="path4863"
       inkscape:connector-curvature="0"
       transform="translate(0,152.36218)" />
    <rect
       style="opacity:0.275;fill:#322200;fill-opacity:1"
       id="rect4865"
       width="120"
       height="20"
       x="360"
       y="392.36218" />
    <rect
       style="opacity:0.275;fill:#322200;fill-opacity:1"
       id="rect4867"
       width="120"
       height="20"
       x="540"
       y="240"
       transform="translate(0,152.36218)" />
    <rect
       style="opacity:0.275;fill:#322200;fill-opacity:1"
       id="rect4869"
       width="120"
       height="20"
       x="740"
       y="240"
       transform="translate(0,152.36218)" />
    <rect
       style="opacity:0.275;fill:#322200;fill-opacity:1"
       id="rect4871"
       width="120"
       height="20"
       x="920"
       y="240"
       transform="translate(0,152.36218)" />
    <rect
       style="opacity:0.275;fill:#322200;fill-opacity:1"
       id="rect4873"
       width="80"
       height="20"
       x="1080"
       y="420"
       transform="translate(0,152.36218)" />
    <rect
       style="opacity:0.275;fill:#322200;fill-opacity:1"
       id="rect4875"
       width="80"
       height="20"
       x="1080"
       y="440"
       transform="translate(0,152.36218)" />
    <rect
       style="opacity:0.275;fill:#322200;fill-opacity:1"
       id="rect4877"
       width="80"
       height="20"
       x="1080"
       y="460"
       transform="translate(0,152.36218)" />
    <rect
       style="opacity:0.275;fill:#322200;fill-opacity:1"
       id="rect4879"
       width="100"
       height="20"
       x="1080"
       y="500"
       transform="translate(0,152.36218)" />
    <rect
       style="opacity:0.275;fill:#322200;fill-opacity:1"
       id="rect4881"
       width="100"
       height="20"
       x="1080"
       y="520"
       transform="translate(0,152.36218)" />
    <rect
       style="opacity:0.275;fill:#322200;fill-opacity:1"
       id="rect4883"
       width="100"
       height="20"
       x="1080"
       y="540"
       transform="translate(0,152.36218)" />
    <rect
       style="opacity:0.275;fill:#322200;fill-opacity:1"
       id="rect4885"
       width="180"
       height="20"
       x="340"
       y="480"
       transform="translate(0,152.36218)" />
    <rect
       style="opacity:0.275;fill:#322200;fill-opacity:1"
       id="rect4887"
       width="180"
       height="80"
       x="340"
       y="500"
       transform="translate(0,152.36218)"
       inkscape:transform-center-x="-10"
       inkscape:transform-center-y="20" />
    <path
       style="fill:none;stroke:#000000;stroke-width:1px;stroke-linecap:butt;stroke-linejoin:miter;stroke-opacity:1"
       d="M 220,360 C 320,480 320,480 320,480 z"
       id="path4889"
       inkscape:connector-curvature="0"
       transform="translate(0,152.36218)" />
    <path
       style="fill:none;stroke:#000000;stroke-width:1px;stroke-linecap:butt;stroke-linejoin:miter;stroke-opacity:1"
       d="m 220,480 100,-120 0,0 z"
       id="path4891"
       inkscape:connector-curvature="0"
       transform="translate(0,152.36218)" />
    <path
       sodipodi:type="spiral"
       style="fill:none;stroke:#000000;stroke-width:1px;stroke-linecap:butt;stroke-linejoin:miter;stroke-opacity:1"
       id="path4893"
       sodipodi:cx="400"
       sodipodi:cy="960"
       sodipodi:expansion="1"
       sodipodi:revolution="3"
       sodipodi:radius="44.721359"
       sodipodi:argument="-16.171612"
       sodipodi:t0="0"
       d="m 400,960 c -2.00554,1.00277 -2.34117,-2.20869 -1.66667,-3.33333 1.82787,-3.04771 6.21997,-2.17156 8.33333,-10e-6 3.78031,3.8844 2.27098,10.19605 -1.66665,13.33334 -5.77863,4.60409 -14.23293,2.39235 -18.33334,-3.33332 -5.4652,-7.63142 -2.52422,-18.2923 4.99998,-23.33334 9.46844,-6.34364 22.3626,-2.66175 28.33334,6.66664 7.23137,11.29794 2.80261,26.43911 -8.3333,33.33334 -13.12329,8.12462 -30.51949,2.94556 -38.33334,-9.99996 -9.0214,-14.94612 -3.0899,-34.60247 11.66662,-43.33335 16.7673,-9.92058 38.68725,-3.23521 48.33335,13.33329 10.82146,18.58736 3.38123,42.77336 -14.99995,53.33335 -20.4066,11.72355 -46.86046,3.52775 -58.33335,-16.66661"
       transform="translate(0,152.36218)" />
    <path
       sodipodi:type="spiral"
       style="fill:none;stroke:#000000;stroke-width:1px;stroke-linecap:butt;stroke-linejoin:miter;stroke-opacity:1"
       id="path4895"
       sodipodi:cx="700"
       sodipodi:cy="960"
       sodipodi:expansion="1"
       sodipodi:revolution="3"
       sodipodi:radius="44.721359"
       sodipodi:argument="-16.815111"
       sodipodi:t0="0"
       d="m 700,960 c -1.00277,2.00554 -3.19815,-0.36225 -3.33333,-1.66667 -0.36633,-3.53489 3.67305,-5.46923 6.66667,-4.99999 5.35488,0.83934 7.9344,6.79426 6.66666,11.66667 -1.86046,7.15045 -9.95095,10.45362 -16.66668,8.33332 -8.951,-2.82603 -12.99473,-13.11933 -9.99998,-21.66668 3.76859,-10.75596 16.29305,-15.54693 26.66668,-11.66664 12.56384,4.69955 18.10551,19.46975 13.3333,31.66668 -5.62388,14.37365 -22.64829,20.6681 -36.66668,14.99997 -16.18477,-6.54408 -23.23334,-25.82808 -16.66663,-41.66668 7.46152,-17.99684 29.00872,-25.80047 46.66668,-18.3333 19.80957,8.37704 28.36895,32.19 19.99996,51.66668 -9.29116,21.62282 -35.37175,30.93844 -56.66668,21.66662"
       transform="translate(0,152.36218)" />
    <path
       sodipodi:type="spiral"
       style="fill:none;stroke:#000000;stroke-width:1px;stroke-linecap:butt;stroke-linejoin:miter;stroke-opacity:1"
       id="path4897"
       sodipodi:cx="1000"
       sodipodi:cy="960"
       sodipodi:expansion="1"
       sodipodi:revolution="3"
       sodipodi:radius="44.721359"
       sodipodi:argument="-16.815111"
       sodipodi:t0="0"
       d="m 1000,960 c -1.00277,2.00554 -3.19815,-0.36225 -3.33333,-1.66667 -0.36633,-3.53489 3.67303,-5.46923 6.66663,-4.99999 5.3549,0.83934 7.9344,6.79426 6.6667,11.66667 -1.8605,7.15045 -9.951,10.45362 -16.66668,8.33332 -8.951,-2.82603 -12.99473,-13.11933 -9.99998,-21.66668 3.76859,-10.75596 16.29305,-15.54693 26.66666,-11.66664 12.5639,4.69955 18.1055,19.46975 13.3333,31.66668 -5.6239,14.37365 -22.6483,20.6681 -36.66666,14.99997 -16.18477,-6.54408 -23.23334,-25.82808 -16.66663,-41.66668 7.46152,-17.99684 29.00872,-25.80047 46.66669,-18.3333 19.8096,8.37704 28.3689,32.19 20,51.66668 -9.2912,21.62282 -35.3718,30.93844 -56.66673,21.66662"
       transform="translate(0,152.36218)" />
    <rect
       style="opacity:0.275;fill:#322200;fill-opacity:1"
       id="rect4899"
       width="160"
       height="20"
       x="740"
       y="1580"
       transform="translate(0,152.36218)" />
    <rect
       style="opacity:0.275;fill:#322200;fill-opacity:1"
       id="rect4901"
       width="160"
       height="20"
       x="740"
       y="1620"
       transform="translate(0,152.36218)" />
    <rect
       style="opacity:0.275;fill:#42df00;fill-opacity:1"
       id="rect4903"
       width="240"
       height="320"
       x="740"
       y="1672.3622" />
    <rect
       style="opacity:0.275;fill:#42df00;fill-opacity:1"
       id="rect4905"
       width="360"
       height="40"
       x="500"
       y="160"
       transform="translate(0,152.36218)" />
    <path
       style="opacity:0.275;fill:#42df00;fill-opacity:1"
       d="m 500.74783,179.99985 0,-19.03846 179.13461,0 179.13462,0 0,19.03846 0,19.03846 -179.13462,0 -179.13461,0 0,-19.03846 z"
       id="path4907"
       inkscape:connector-curvature="0"
       transform="translate(0,152.36218)" />
    <path
       style="opacity:0.275;fill:#42df00;fill-opacity:1"
       d="m 500.74783,179.99985 0,-19.03846 179.13461,0 179.13462,0 0,19.03846 0,19.03846 -179.13462,0 -179.13461,0 0,-19.03846 z"
       id="path4909"
       inkscape:connector-curvature="0"
       transform="translate(0,152.36218)" />
    <path
       style="opacity:0.275;fill:#42df00;fill-opacity:1"
       d="m 500.74783,179.99985 0,-19.03846 179.13461,0 179.13462,0 0,19.03846 0,19.03846 -179.13462,0 -179.13461,0 0,-19.03846 z"
       id="path4911"
       inkscape:connector-curvature="0"
       transform="translate(0,152.36218)" />
    <path
       style="opacity:0.275;fill:#42df00;fill-opacity:1"
       d="m 520.86539,331.40064 0,-19.03846 179.13461,0 179.13462,0 0,19.03846 0,19.03846 -179.13462,0 -179.13461,0 0,-19.03846 z"
       id="path4913"
       inkscape:connector-curvature="0" />
    <path
       style="opacity:0.275;fill:#42df00;fill-opacity:1"
       d="m 860.74783,179.13447 0,-18.17308 8.65384,0 8.65385,0 0,18.17308 0,18.17307 -8.65385,0 -8.65384,0 0,-18.17307 z"
       id="path4915"
       inkscape:connector-curvature="0"
       transform="translate(0,152.36218)" />
    <path
       style="opacity:0.275;fill:#42df00;fill-opacity:1"
       d="m 860.74783,179.13447 0,-18.17308 8.65384,0 8.65385,0 0,18.17308 0,18.17307 -8.65385,0 -8.65384,0 0,-18.17307 z"
       id="path4917"
       inkscape:connector-curvature="0"
       transform="translate(0,152.36218)" />
    <path
       style="opacity:0.275;fill:#42df00;fill-opacity:1"
       d="m 860.74783,179.13447 0,-18.17308 8.65384,0 8.65385,0 0,18.17308 0,18.17307 -8.65385,0 -8.65384,0 0,-18.17307 z"
       id="path4919"
       inkscape:connector-curvature="0"
       transform="translate(0,152.36218)" />
    <path
       style="opacity:0.275;fill:#42df00;fill-opacity:1"
       d="m 233.48815,452.16331 c 2.44361,-13.59728 11.6525,-35.29722 18.89678,-44.52858 2.61004,-3.32596 2.87622,-3.20354 9.40747,4.32692 6.47383,7.46426 6.61082,7.87725 3.71862,11.21128 -1.65154,1.90385 -9.03349,10.66586 -16.40433,19.47115 -7.37084,8.80529 -14.1628,16.00962 -15.09324,16.00962 -1.00838,0 -1.22056,-2.62165 -0.5253,-6.49039 z"
       id="path4921"
       inkscape:connector-curvature="0"
       transform="translate(0,152.36218)" />
    <path
       style="opacity:0.275;fill:#42df00;fill-opacity:1"
       d="m 261.90167,428.57716 c 0,-0.3594 1.36298,-1.72238 3.02885,-3.02885 2.74509,-2.15285 2.80631,-2.09163 0.65346,0.65347 -2.26103,2.88302 -3.68231,3.79986 -3.68231,2.37538 z"
       id="path4923"
       inkscape:connector-curvature="0"
       transform="translate(0,152.36218)" />
    <path
       style="opacity:0.275;fill:#42df00;fill-opacity:1"
       d="m 293.9038,446.51793 c -13.85983,-16.52116 -21.32391,-26.76229 -20.49845,-28.125 3.33711,-5.50913 42.67193,-51.47 44.0497,-51.47 0.89469,0 1.56201,22.55236 1.56201,52.78846 0,32.50116 -0.63732,52.78846 -1.65833,52.78846 -0.91208,0 -11.4668,-11.69186 -23.45493,-25.98192 z"
       id="path4925"
       inkscape:connector-curvature="0"
       transform="translate(0,152.36218)" />
    <path
       style="opacity:0.275;fill:#42df00;fill-opacity:1"
       d="m 263.06721,409.58004 -6.17453,-7.53519 6.78527,-7.06145 c 9.0898,-9.45977 19.91128,-16.71381 35.5971,-23.86207 7.15589,-3.26104 13.38957,-5.92917 13.85264,-5.92917 0.46307,0 -8.95883,11.68269 -20.93756,25.96154 -11.97872,14.27884 -22.0425,25.96154 -22.36395,25.96154 -0.32144,0 -3.36298,-3.39084 -6.75897,-7.5352 z"
       id="path4927"
       inkscape:connector-curvature="0"
       transform="translate(0,152.36218)" />
    <path
       style="opacity:0.275;fill:#42df00;fill-opacity:1"
       d="m 232.20996,473.79793 c 0.58969,-6.30266 3.04929,-10.20537 17.17976,-27.25962 9.07035,-10.94711 17.42425,-20.9253 18.56423,-22.17374 1.6634,-1.82167 5.43734,1.76696 19.11157,18.17307 9.37138,11.24364 20.48883,24.53192 24.70545,29.52952 l 7.66657,9.08654 -43.9579,0 -43.9579,0 0.68822,-7.35577 0,0 z"
       id="path4929"
       inkscape:connector-curvature="0"
       transform="translate(0,152.36218)" />
    <path
       style="opacity:0.275;fill:#42df00;fill-opacity:1"
       d="m 239.08225,380.7081 c -7.91566,-9.55277 -14.69281,-18.24332 -15.06033,-19.31234 -0.47827,-1.39116 3.16286,-1.61981 12.80921,-0.8044 7.41258,0.62659 26.79501,1.19197 43.07206,1.2564 23.02038,0.0911 28.63344,0.53873 25.26771,2.01496 -19.43136,8.52272 -28.14193,13.84771 -38.27215,23.39675 -6.31163,5.94952 -11.91414,10.81731 -12.45003,10.81731 -0.53589,0 -7.4508,-7.81591 -15.36647,-17.36868 z"
       id="path4931"
       inkscape:connector-curvature="0"
       transform="translate(0,152.36218)" />
    <path
       style="opacity:0.275;fill:#42df00;fill-opacity:1"
       d="m 222.09398,420.57678 c 0,-30.94074 0.65193,-51.92308 1.61328,-51.92308 1.9973,0 27.8098,30.23288 27.8098,32.57222 0,0.93242 -2.66589,5.6568 -5.92419,10.49861 -7.6412,11.35479 -12.62051,24.81493 -14.97347,40.47655 -2.12458,14.14147 -4.17437,20.29877 -6.75755,20.29877 -1.16403,0 -1.76787,-17.735 -1.76787,-51.92307 z"
       id="path4933"
       inkscape:connector-curvature="0"
       transform="translate(0,152.36218)" />
  </g>
</svg>
