<?xml version="1.0" encoding="UTF-8" standalone="no"?>
<!-- Created with Inkscape (http://www.inkscape.org/) -->

<svg
   xmlns:osb="http://www.openswatchbook.org/uri/2009/osb"
   xmlns:dc="http://purl.org/dc/elements/1.1/"
   xmlns:cc="http://creativecommons.org/ns#"
   xmlns:rdf="http://www.w3.org/1999/02/22-rdf-syntax-ns#"
   xmlns:svg="http://www.w3.org/2000/svg"
   xmlns="http://www.w3.org/2000/svg"
   xmlns:sodipodi="http://sodipodi.sourceforge.net/DTD/sodipodi-0.dtd"
   xmlns:inkscape="http://www.inkscape.org/namespaces/inkscape"
   width="1400"
   height="900"
   id="svg3925"
   version="1.1"
   inkscape:version="0.48.5 r10040"
   sodipodi:docname="unit2wireframe2.svg">
  <defs
     id="defs3927">
    <linearGradient
       id="linearGradient5369"
       osb:paint="solid">
      <stop
         style="stop-color:#1b041b;stop-opacity:1;"
         offset="0"
         id="stop5371" />
    </linearGradient>
    <linearGradient
       id="linearGradient5363"
       osb:paint="solid">
      <stop
         style="stop-color:#1e1d19;stop-opacity:1;"
         offset="0"
         id="stop5365" />
    </linearGradient>
    <linearGradient
       id="linearGradient5357"
       osb:paint="solid">
      <stop
         style="stop-color:#070707;stop-opacity:1;"
         offset="0"
         id="stop5359" />
    </linearGradient>
  </defs>
  <sodipodi:namedview
     id="base"
     pagecolor="#ffffff"
     bordercolor="#666666"
     borderopacity="1.0"
     inkscape:pageopacity="0.0"
     inkscape:pageshadow="2"
     inkscape:zoom="0.57777778"
     inkscape:cx="137.9786"
     inkscape:cy="308.07707"
     inkscape:document-units="px"
     inkscape:current-layer="layer1"
     showgrid="false"
     showguides="false"
     inkscape:guide-bbox="true"
     inkscape:window-width="1280"
     inkscape:window-height="726"
     inkscape:window-x="0"
     inkscape:window-y="0"
     inkscape:window-maximized="1">
    <inkscape:grid
       type="xygrid"
       id="grid3933"
       empspacing="5"
       visible="true"
       enabled="true"
       snapvisiblegridlinesonly="true" />
    <sodipodi:guide
       orientation="1,0"
       position="700,-20"
       id="guide3935" />
    <sodipodi:guide
       orientation="0,1"
       position="300,440"
       id="guide3937" />
    <sodipodi:guide
       orientation="0,1"
       position="80,700"
       id="guide3961" />
    <sodipodi:guide
       orientation="1,0"
       position="340,540"
       id="guide3963" />
    <sodipodi:guide
       orientation="1,0"
       position="1060,820"
       id="guide3965" />
  </sodipodi:namedview>
  <metadata
     id="metadata3930">
    <rdf:RDF>
      <cc:Work
         rdf:about="">
        <dc:format>image/svg+xml</dc:format>
        <dc:type
           rdf:resource="http://purl.org/dc/dcmitype/StillImage" />
        <dc:title></dc:title>
      </cc:Work>
    </rdf:RDF>
  </metadata>
  <g
     inkscape:label="Layer 1"
     inkscape:groupmode="layer"
     id="layer1"
     transform="translate(0,-152.36218)">
    <rect
       style="opacity:0.275;fill:#ff2200;fill-opacity:1"
       id="rect3941"
       width="200"
       height="100"
       x="133.84616"
       y="247.16988" />
    <rect
       style="opacity:0.275;fill:#ff2200;fill-opacity:1"
       id="rect3941-7"
       width="200"
       height="100"
       x="1060"
       y="252.36218" />
    <path
       style="opacity:0.275;fill:#000000;fill-opacity:1"
       d="m 512.38462,245.82372 0,-58.84616 218.9423,0 218.9423,0 0,58.84616 0,58.84615 -218.9423,0 -218.9423,0 0,-58.84615 z"
       id="path3969"
       inkscape:connector-curvature="0" />
    <path
       style="opacity:0.27500000000000002;fill:#666666;fill-opacity:1"
       d="m 1061.0385,149.71154 0,-49.32692 99.5192,0 99.5192,0 0,49.32692 0,49.32692 -99.5192,0 -99.5192,0 0,-49.32692 z"
       id="path3979"
       inkscape:connector-curvature="0"
       transform="translate(0,152.36218)" />
    <path
       sodipodi:type="arc"
       style="opacity:0.27500000000000002;fill:#4d2200;fill-opacity:1"
       id="path3985"
       sodipodi:cx="820"
       sodipodi:cy="260"
       sodipodi:rx="60"
       sodipodi:ry="60"
       d="m 880,260 c 0,33.13708 -26.86292,60 -60,60 -33.13708,0 -60,-26.86292 -60,-60 0,-33.13708 26.86292,-60 60,-60 33.13708,0 60,26.86292 60,60 z"
       transform="translate(-20,152.36218)" />
    <path
       transform="translate(160,152.36218)"
       sodipodi:type="arc"
       style="opacity:0.27500000000000002;fill:#472200;fill-opacity:1"
       id="path3985-9"
       sodipodi:cx="820"
       sodipodi:cy="260"
       sodipodi:rx="60"
       sodipodi:ry="60"
       d="m 880,260 c 0,33.13708 -26.86292,60 -60,60 -33.13708,0 -60,-26.86292 -60,-60 0,-33.13708 26.86292,-60 60,-60 33.13708,0 60,26.86292 60,60 z" />
    <path
       transform="translate(-400,152.36218)"
       sodipodi:type="arc"
       style="opacity:0.27500000000000002;fill:#3d2200;fill-opacity:1"
       id="path3985-2"
       sodipodi:cx="820"
       sodipodi:cy="260"
       sodipodi:rx="60"
       sodipodi:ry="60"
       d="m 880,260 c 0,33.13708 -26.86292,60 -60,60 -33.13708,0 -60,-26.86292 -60,-60 0,-33.13708 26.86292,-60 60,-60 33.13708,0 60,26.86292 60,60 z" />
    <path
       transform="translate(-220,152.36218)"
       sodipodi:type="arc"
       style="opacity:0.27500000000000002;fill:#4a2200;fill-opacity:1"
       id="path3985-6"
       sodipodi:cx="820"
       sodipodi:cy="260"
       sodipodi:rx="60"
       sodipodi:ry="60"
       d="m 880,260 c 0,33.13708 -26.86292,60 -60,60 -33.13708,0 -60,-26.86292 -60,-60 0,-33.13708 26.86292,-60 60,-60 33.13708,0 60,26.86292 60,60 z" />
    <path
       sodipodi:type="arc"
       style="opacity:0.27500000000000002;fill:#333333;fill-opacity:1"
       id="path4029"
       sodipodi:cx="770"
       sodipodi:cy="510"
       sodipodi:rx="110"
       sodipodi:ry="110"
       d="m 880,510 c 0,60.75132 -49.24868,110 -110,110 -60.75132,0 -110,-49.24868 -110,-110 0,-60.75132 49.24868,-110 110,-110 60.75132,0 110,49.24868 110,110 z"
       transform="translate(-70,112.36218)" />
    <path
       transform="translate(-260,382.36218)"
       sodipodi:type="arc"
       style="opacity:0.275;fill:#ff2200;fill-opacity:1"
       id="path4029-9"
       sodipodi:cx="770"
       sodipodi:cy="510"
       sodipodi:rx="110"
       sodipodi:ry="110"
       d="m 880,510 c 0,60.75132 -49.24868,110 -110,110 -60.75132,0 -110,-49.24868 -110,-110 0,-60.75132 49.24868,-110 110,-110 60.75132,0 110,49.24868 110,110 z" />
    <path
       transform="translate(120,382.36218)"
       sodipodi:type="arc"
       style="opacity:0.275;fill:#ff2200;fill-opacity:1"
       id="path4029-5"
       sodipodi:cx="770"
       sodipodi:cy="510"
       sodipodi:rx="110"
       sodipodi:ry="110"
       d="m 880,510 c 0,60.75132 -49.24868,110 -110,110 -60.75132,0 -110,-49.24868 -110,-110 0,-60.75132 49.24868,-110 110,-110 60.75132,0 110,49.24868 110,110 z" />
    <path
       transform="translate(-430,112.36218)"
       sodipodi:type="arc"
       style="opacity:0.27500000000000002;fill:#342200;fill-opacity:1"
       id="path4029-7"
       sodipodi:cx="770"
       sodipodi:cy="510"
       sodipodi:rx="110"
       sodipodi:ry="110"
       d="m 880,510 c 0,60.75132 -49.24868,110 -110,110 -60.75132,0 -110,-49.24868 -110,-110 0,-60.75132 49.24868,-110 110,-110 60.75132,0 110,49.24868 110,110 z" />
    <path
       transform="translate(290,112.36218)"
       sodipodi:type="arc"
       style="opacity:0.275;fill:#ff2200;fill-opacity:1"
       id="path4029-3"
       sodipodi:cx="770"
       sodipodi:cy="510"
       sodipodi:rx="110"
       sodipodi:ry="110"
       d="m 880,510 c 0,60.75132 -49.24868,110 -110,110 -60.75132,0 -110,-49.24868 -110,-110 0,-60.75132 49.24868,-110 110,-110 60.75132,0 110,49.24868 110,110 z" />
    <path
       transform="translate(-420,852.36218)"
       sodipodi:type="arc"
       style="opacity:0.275;fill:#ff2200;fill-opacity:1"
       id="path3985-9-4"
       sodipodi:cx="820"
       sodipodi:cy="260"
       sodipodi:rx="60"
       sodipodi:ry="60"
       d="m 880,260 c 0,33.13708 -26.86292,60 -60,60 -33.13708,0 -60,-26.86292 -60,-60 0,-33.13708 26.86292,-60 60,-60 33.13708,0 60,26.86292 60,60 z" />
    <path
       transform="translate(180,852.36218)"
       sodipodi:type="arc"
       style="opacity:0.275;fill:#ff2200;fill-opacity:1"
       id="path3985-9-1"
       sodipodi:cx="820"
       sodipodi:cy="260"
       sodipodi:rx="60"
       sodipodi:ry="60"
       d="m 880,260 c 0,33.13708 -26.86292,60 -60,60 -33.13708,0 -60,-26.86292 -60,-60 0,-33.13708 26.86292,-60 60,-60 33.13708,0 60,26.86292 60,60 z" />
    <path
       transform="translate(-120,852.36218)"
       sodipodi:type="arc"
       style="opacity:0.275;fill:#ff2200;fill-opacity:1"
       id="path3985-9-0"
       sodipodi:cx="820"
       sodipodi:cy="260"
       sodipodi:rx="60"
       sodipodi:ry="60"
       d="m 880,260 c 0,33.13708 -26.86292,60 -60,60 -33.13708,0 -60,-26.86292 -60,-60 0,-33.13708 26.86292,-60 60,-60 33.13708,0 60,26.86292 60,60 z" />
    <rect
       style="opacity:0.275;fill:#1a1a1a;fill-opacity:1"
       id="rect4131"
       width="160"
       height="120"
       x="603.46155"
       y="552.36218" />
    <rect
       style="opacity:0.275;fill:#ff2200;fill-opacity:1"
       id="rect4133"
       width="80"
       height="180"
       x="980"
       y="380"
       transform="translate(0,152.36218)" />
    <rect
       style="opacity:0.275;fill:#ff2200;fill-opacity:1"
       id="rect4135"
       width="280"
       height="100"
       x="380"
       y="700"
       transform="translate(0,152.36218)" />
    <rect
       style="opacity:0.275;fill:#ff2200;fill-opacity:1"
       id="rect4137"
       width="80"
       height="60"
       x="860"
       y="720"
       transform="translate(0,152.36218)" />
    <rect
       style="opacity:0.275;fill:#ff2200;fill-opacity:1"
       id="rect4139"
       width="200"
       height="40"
       x="800"
       y="660"
       transform="translate(0,152.36218)" />
    <path
       style="fill:#333333;stroke:#000000;stroke-width:1px;stroke-linecap:butt;stroke-linejoin:miter;stroke-opacity:1"
       d="M 600,400 760,520 z"
       id="path4145"
       inkscape:connector-curvature="0"
       transform="translate(0,152.36218)" />
    <path
       style="fill:none;stroke:#000000;stroke-width:1px;stroke-linecap:butt;stroke-linejoin:miter;stroke-opacity:1"
       d="M 600,520 760,400 z"
       id="path4147"
       inkscape:connector-curvature="0"
       transform="translate(0,152.36218)" />
    <path
       style="fill:none;stroke:#000000;stroke-width:1px;stroke-linecap:butt;stroke-linejoin:miter;stroke-opacity:1"
       d="m 980,380 80,180 z"
       id="path4149"
       inkscape:connector-curvature="0"
       transform="translate(0,152.36218)" />
    <path
       style="fill:none;stroke:#000000;stroke-width:1px;stroke-linecap:butt;stroke-linejoin:miter;stroke-opacity:1"
       d="M 1060,380 980,560 z"
       id="path4151"
       inkscape:connector-curvature="0"
       transform="translate(0,152.36218)" />
    <path
       style="fill:none;stroke:#000000;stroke-width:1px;stroke-linecap:butt;stroke-linejoin:miter;stroke-opacity:1"
       d="m 800,660 200,40 z"
       id="path4153"
       inkscape:connector-curvature="0"
       transform="translate(0,152.36218)" />
    <path
       style="fill:none;stroke:#000000;stroke-width:1px;stroke-linecap:butt;stroke-linejoin:miter;stroke-opacity:1"
       d="m 800,700 200,-40 z"
       id="path4155"
       inkscape:connector-curvature="0"
       transform="translate(0,152.36218)" />
    <path
       style="fill:none;stroke:#000000;stroke-width:1px;stroke-linecap:butt;stroke-linejoin:miter;stroke-opacity:1"
       d="M 380,700 660,800 z"
       id="path4157"
       inkscape:connector-curvature="0"
       transform="translate(0,152.36218)" />
    <path
       style="fill:#333333;stroke:#000000;stroke-width:1px;stroke-linecap:butt;stroke-linejoin:miter;stroke-opacity:1;fill-opacity:1"
       d="M 660,700 380,800 z"
       id="path4159"
       inkscape:connector-curvature="0"
       transform="translate(0,152.36218)" />
    <path
       style="fill:none;stroke:#000000;stroke-width:1px;stroke-linecap:butt;stroke-linejoin:miter;stroke-opacity:1"
       d="m 380,220 80,80 z"
       id="path4669"
       inkscape:connector-curvature="0"
       transform="translate(0,152.36218)" />
    <path
       style="fill:none;stroke:#000000;stroke-width:1px;stroke-linecap:butt;stroke-linejoin:miter;stroke-opacity:1"
       d="m 380,300 80,-80 z"
       id="path4671"
       inkscape:connector-curvature="0"
       transform="translate(0,152.36218)" />
    <path
       style="fill:none;stroke:#000000;stroke-width:1px;stroke-linecap:butt;stroke-linejoin:miter;stroke-opacity:1"
       d="m 560,220 80,80 z"
       id="path4673"
       inkscape:connector-curvature="0"
       transform="translate(0,152.36218)" />
    <path
       style="fill:none;stroke:#000000;stroke-width:1px;stroke-linecap:butt;stroke-linejoin:miter;stroke-opacity:1"
       d="m 640,220 -80,80 z"
       id="path4675"
       inkscape:connector-curvature="0"
       transform="translate(0,152.36218)" />
    <path
       style="fill:none;stroke:#000000;stroke-width:1px;stroke-linecap:butt;stroke-linejoin:miter;stroke-opacity:1"
       d="m 760,220 80,80 z"
       id="path4677"
       inkscape:connector-curvature="0"
       transform="translate(0,152.36218)" />
    <path
       style="fill:none;stroke:#000000;stroke-width:1px;stroke-linecap:butt;stroke-linejoin:miter;stroke-opacity:1"
       d="m 760,300 80,-80 z"
       id="path4679"
       inkscape:connector-curvature="0"
       transform="translate(0,152.36218)" />
    <path
       style="fill:none;stroke:#000000;stroke-width:1px;stroke-linecap:butt;stroke-linejoin:miter;stroke-opacity:1"
       d="m 940,220 80,80 z"
       id="path4681"
       inkscape:connector-curvature="0"
       transform="translate(0,152.36218)" />
    <path
       style="fill:none;stroke:#000000;stroke-width:1px;stroke-linecap:butt;stroke-linejoin:miter;stroke-opacity:1"
       d="m 1020,220 -80,80 z"
       id="path4683"
       inkscape:connector-curvature="0"
       transform="translate(0,152.36218)" />
    <path
       style="opacity:0.275;fill:#fff8e8;fill-opacity:1"
       d="m 1099.1151,138.39906 -47.5959,-23.92727 95.0481,-0.0933 c 52.2764,-0.0513 94.7235,0.20946 94.3269,0.57956 -0.3966,0.3701 -21.7501,11.17937 -47.4522,24.02061 l -46.731,23.3477 -47.5959,-23.92726 z"
       id="path4701"
       inkscape:connector-curvature="0" />
    <path
       style="opacity:0.275;fill:#fffcf6;fill-opacity:1"
       d="m 1031.6154,44.182776 0,-47.6023404 47.1634,23.5640504 c 25.9399,12.96023 47.4429,23.82172 47.7843,24.13664 0.6091,0.5617 -92.3487,47.50398 -94.07,47.50398 -0.4828,0 -0.8777,-21.42105 -0.8777,-47.60233 z"
       id="path4703"
       inkscape:connector-curvature="0" />
    <path
       style="opacity:0.27500000000000002;fill:#4d4d4d;fill-opacity:0.03398060000000000"
       d="m 1112.5288,175.15697 47.1635,-23.68534 47.1635,23.68534 47.1634,23.68533 -94.3269,0 -94.3269,0 47.1634,-23.68533 0,0 z"
       id="path4705"
       inkscape:connector-curvature="0"
       transform="translate(0,152.36218)" />
    <path
       style="opacity:0.275;fill:#fffcf6;fill-opacity:1"
       d="m 1222.4243,97.306352 -47.172,-23.71514 47.6128,-23.78767 c 26.1871,-13.08321 47.9986,-23.78766 48.47,-23.78766 0.4715,0 0.8572,21.41827 0.8572,47.59615 0,26.17789 -0.5841,47.554148 -1.2981,47.502808 -0.7139,-0.0513 -22.5254,-10.76516 -48.4699,-23.808488 z"
       id="path4707"
       inkscape:connector-curvature="0" />
    <path
       style="opacity:0.275;fill:#322200;fill-opacity:1"
       d="m 387.32948,1017.5439 c -17.25798,-4.0674 -34.25217,-18.00611 -41.65193,-34.16308 -5.80849,-12.6825 -5.32079,-34.20912 1.08522,-47.9002 20.85319,-44.56802 83.69395,-45.4401 105.97268,-1.47064 4.55611,8.99198 5.12993,11.86689 5.12993,25.70141 0,13.23598 -0.68215,17.0075 -4.53915,25.09615 -7.72537,16.20116 -21.44264,27.44376 -39.09447,32.04146 -10.89527,2.8378 -17.12679,2.9988 -26.90228,0.6949 l 0,0 z"
       id="path4731"
       inkscape:connector-curvature="0"
       transform="translate(0,152.36218)" />
    <path
       style="opacity:0.275;fill:#322200;fill-opacity:1"
       d="m 381.41963,1014.6824 c -17.682,-7.471 -33.13848,-23.42238 -36.81823,-37.99704 -9.70491,-38.43896 16.55089,-73.52054 55.21066,-73.76947 22.86241,-0.14722 41.87655,11.74764 52.15569,32.62753 5.02203,10.20119 5.34333,11.97173 4.75603,26.20797 -0.49131,11.90928 -1.55981,17.09678 -4.85751,23.58291 -5.33018,10.48376 -18.33202,22.746 -29.03347,27.3819 -11.57831,5.0158 -31.91088,5.9811 -41.41317,1.9662 z"
       id="path4733"
       inkscape:connector-curvature="0"
       transform="translate(0,152.36218)" />
    <path
       style="opacity:0.275;fill:#322200;fill-opacity:1"
       d="m 377.63522,1011.4352 c -11.83639,-5.8983 -25.45782,-19.29004 -29.94965,-29.44458 -8.25631,-18.66477 -2.7461,-46.27729 12.20663,-61.16924 28.38716,-28.27179 74.63268,-19.99095 91.75226,16.42938 5.5831,11.87753 5.17031,35.12179 -0.83783,47.17855 -13.15177,26.39219 -48.34065,39.37959 -73.17141,27.00589 z"
       id="path4735"
       inkscape:connector-curvature="0"
       transform="translate(0,152.36218)" />
    <path
       style="opacity:0.27500000000000002;fill:#333333;fill-opacity:1"
       d="m 390.09494,1014.1542 c -10.83533,-2.1366 -20.17072,-7.5597 -29.72956,-17.27052 -12.36417,-12.56073 -14.99024,-18.792 -14.97095,-35.52373 0.0141,-12.23025 0.70961,-15.33715 5.70468,-25.48358 20.43879,-41.51707 80.7262,-40.32889 99.43244,1.95967 4.87727,11.02589 4.90446,32.66335 0.0548,43.62678 -10.11854,22.87468 -36.89355,37.34468 -60.49142,32.69138 l 0,0 z"
       id="path4737"
       inkscape:connector-curvature="0"
       transform="translate(0,152.36218)" />
    <path
       style="opacity:0.275;fill:#322200;fill-opacity:1"
       d="m 687.57743,1017.6778 c -23.82901,-4.9958 -42.98466,-26.25579 -46.23813,-51.31769 -2.55393,-19.67329 8.66053,-43.60132 25.69121,-54.81674 11.25656,-7.41291 18.95587,-9.90827 31.01598,-10.05232 25.16916,-0.30063 44.58307,11.74339 55.24532,34.27314 14.41314,30.45552 -1.4617,68.58591 -33.09127,79.48311 -9.45561,3.2578 -23.63743,4.3143 -32.62311,2.4305 z"
       id="path4739"
       inkscape:connector-curvature="0"
       transform="translate(0,152.36218)" />
    <path
       style="opacity:0.275;fill:#322200;fill-opacity:1"
       d="m 679.0838,1014.1766 c -11.398,-4.5285 -24.71289,-17.12219 -31.05104,-29.36906 -4.2726,-8.25572 -4.92973,-11.47191 -4.95079,-24.23076 -0.0206,-12.51562 0.67442,-16.13417 4.65663,-24.24241 5.99245,-12.20132 16.72284,-23.0048 28.64044,-28.83554 11.64957,-5.6996 29.29874,-6.36602 43.28517,-1.63441 24.98596,8.45276 41.90888,37.89106 36.77706,63.97563 -3.76307,19.12729 -13.13398,32.09765 -29.4875,40.81405 -14.24797,7.5941 -33.96966,9.0453 -47.86997,3.5225 z"
       id="path4741"
       inkscape:connector-curvature="0"
       transform="translate(0,152.36218)" />
    <path
       style="opacity:0.275;fill:#322200;fill-opacity:1"
       d="m 682.86538,1014.6915 c -6.91537,-1.7347 -21.68451,-13.0459 -27.656,-21.18065 -8.95813,-12.20342 -11.28648,-19.0763 -11.28494,-33.31118 0.002,-15.5381 6.07539,-29.61478 17.53758,-40.64586 11.46774,-11.03641 22.04758,-15.17893 38.71106,-15.15727 17.58624,0.0229 28.66648,4.64074 39.86739,16.61542 11.7388,12.54973 15.45998,21.88765 15.49134,38.87393 0.0233,12.63458 -0.57298,15.19469 -6.03181,25.89639 -10.17589,19.94922 -28.17701,30.38942 -51.68914,29.97832 -6.31616,-0.1104 -13.04163,-0.5915 -14.94548,-1.0691 z"
       id="path4743"
       inkscape:connector-curvature="0"
       transform="translate(0,152.36218)" />
    <path
       style="opacity:0.27500000000000002;fill:#333333;fill-opacity:1"
       d="m 674.95753,1009.4051 c -19.40907,-12.48181 -29.43122,-28.39527 -29.60637,-47.00989 -0.18018,-19.14803 5.57132,-31.84365 20.2992,-44.80765 19.14503,-16.85213 50.45994,-16.65727 69.46762,0.43227 12.55918,11.29178 18.2851,22.98796 19.22803,39.2766 0.67269,11.62023 0.2015,14.53552 -3.74127,23.14767 -6.3747,13.92418 -13.27173,21.9325 -23.91013,27.7627 -8.09701,4.4374 -11.31174,5.1243 -26.52153,5.6666 -16.69575,0.5953 -17.58729,0.4374 -25.21555,-4.4683 l 0,0 z"
       id="path4745"
       inkscape:connector-curvature="0"
       transform="translate(0,152.36218)" />
    <path
       style="opacity:0.275;fill:#322200;fill-opacity:1"
       d="m 985.23133,1017.0098 c -10.22312,-2.5882 -25.45663,-12.2822 -30.92606,-19.67997 -8.39805,-11.35898 -11.54598,-20.10704 -12.29112,-34.1569 -1.01749,-19.1853 3.46831,-31.08163 16.71511,-44.32843 30.33371,-30.33371 79.01704,-20.19452 96.49894,20.09766 4.8704,11.22529 4.2084,32.26181 -1.3955,44.34233 -12.3882,26.70581 -40.9217,40.73321 -68.60137,33.72531 z"
       id="path4747"
       inkscape:connector-curvature="0"
       transform="translate(0,152.36218)" />
    <path
       style="opacity:0.275;fill:#322200;fill-opacity:1"
       d="m 979.22262,1013.6191 c -13.51491,-5.7156 -23.69212,-14.43322 -29.8688,-25.58502 -4.8282,-8.71715 -5.14228,-10.44708 -5.14228,-28.32269 0,-18.93106 0.0351,-19.0925 6.23067,-28.618 12.24579,-18.82765 29.26951,-28.61455 49.15394,-28.25849 30.59895,0.54792 54.90215,21.94972 57.50355,50.63856 3.0803,33.96976 -20.757,61.65014 -54.7817,63.61374 -11.09104,0.64 -14.64248,0.1067 -23.09538,-3.4681 z"
       id="path4749"
       inkscape:connector-curvature="0"
       transform="translate(0,152.36218)" />
    <path
       style="opacity:0.275;fill:#322200;fill-opacity:1"
       d="m 982.28846,1013.9361 c -15.49476,-5.8369 -29.04095,-18.11625 -34.56183,-31.32959 -3.73565,-8.94067 -3.62505,-37.62429 0.17596,-45.63433 4.74576,-10.00094 17.45987,-22.63376 27.9775,-27.79862 8.38679,-4.11847 11.95053,-4.83403 23.71606,-4.76191 22.20065,0.13609 40.21035,10.43957 50.14145,28.68638 6.9753,12.81585 8.1363,32.51214 2.7571,46.77179 -8.1621,21.63638 -26.7995,34.56488 -51.1678,35.49418 -7.61536,0.2904 -16.18267,-0.3522 -19.03844,-1.4279 z"
       id="path4751"
       inkscape:connector-curvature="0"
       transform="translate(0,152.36218)" />
    <path
       style="opacity:0.27500000000000002;fill:#000000;fill-opacity:1"
       d="m 977.09615,1010.5842 c -12.3902,-6.6261 -21.24274,-15.11145 -26.0797,-24.99784 -4.07279,-8.32449 -4.68079,-11.67226 -4.68079,-25.77363 0,-13.12899 0.71849,-17.69063 3.78367,-24.02245 4.87237,-10.06497 16.88258,-21.08016 29.06596,-26.65789 8.48822,-3.88604 11.19267,-4.2956 23.01471,-3.4853 22.9924,1.57594 38.1952,11.22246 46.9924,29.8178 9.0698,19.17148 5.8006,45.421 -7.5449,60.58237 -10.361,11.77074 -22.9236,17.07474 -41.95443,17.71334 -13.34051,0.4477 -16.70446,-0.025 -22.59692,-3.1764 z"
       id="path4753"
       inkscape:connector-curvature="0"
       transform="translate(0,152.36218)" />
    <rect
       style="opacity:0.275;fill:#322200;fill-opacity:1"
       id="rect4755"
       width="600"
       height="120"
       x="400"
       y="1140"
       transform="translate(0,152.36218)" />
    <rect
       style="opacity:0.275;fill:#322200;fill-opacity:1"
       id="rect4757"
       width="280"
       height="120"
       x="1040"
       y="1260"
       transform="translate(0,152.36218)" />
    <rect
       style="opacity:0.275;fill:#322200;fill-opacity:1"
       id="rect4757-5"
       width="280"
       height="120"
       x="80"
       y="1412.3622" />
    <path
       sodipodi:type="arc"
       style="opacity:0.275;fill:#322200;fill-opacity:1"
       id="path4777"
       sodipodi:cx="700"
       sodipodi:cy="1700"
       sodipodi:rx="360"
       sodipodi:ry="300"
       d="m 1060,1700 c 0,165.6854 -161.17749,300 -360,300 -198.82251,0 -360,-134.3146 -360,-300 0,-165.6854 161.17749,-300 360,-300 198.82251,0 360,134.3146 360,300 z"
       transform="translate(0,152.36218)" />
    <rect
       style="opacity:0.275;fill:#322200;fill-opacity:1"
       id="rect4779"
       width="260"
       height="260"
       x="360"
       y="1480"
       transform="translate(0,152.36218)" />
    <path
       style="opacity:0.275;fill:#322200;fill-opacity:1"
       d="m 360.45332,1669.7595 0.48899,-69.6635 7.4642,-14.7115 c 16.55072,-32.6206 41.94606,-65.1581 70.36613,-90.1558 l 15.56472,-13.6904 82.67747,0 82.67748,0 0,128.9423 0,128.9423 -129.86399,0 -129.864,0 0.489,-69.6634 0,0 z"
       id="path4781"
       inkscape:connector-curvature="0"
       transform="translate(0,152.36218)" />
    <path
       style="opacity:0.275;fill:#322200;fill-opacity:1"
       d="m 361.33912,1669.7595 0.8297,-69.6635 9.51589,-18.1731 c 15.93675,-30.4353 39.92881,-60.9612 67.44684,-85.8146 l 16.132,-14.57 82.21438,0 82.21438,0 0,128.9423 0,128.9423 -129.59145,0 -129.59145,0 0.82971,-69.6634 0,0 z"
       id="path4783"
       inkscape:connector-curvature="0"
       transform="translate(0,152.36218)" />
    <path
       style="opacity:0.27500000000000002;fill:#4d4d4d;fill-opacity:1"
       d="m 362.07777,1669.7595 0.67062,-69.6635 7.46405,-13.8461 c 17.69457,-32.8243 41.00218,-62.8617 69.12087,-89.0787 l 16.76679,-15.6329 81.79611,0 81.7961,0 0,128.9423 0,128.9423 -129.14258,0 -129.14258,0 0.67062,-69.6634 0,0 z"
       id="path4785"
       inkscape:connector-curvature="0"
       transform="translate(0,152.36218)" />
    <path
       style="opacity:0.275;fill:#322200;fill-opacity:1"
       d="m 360.13302,1539.9518 -0.0561,-58.4135 45.87637,0 45.87637,0 -13.47658,11.8754 c -30.55988,26.929 -54.51057,57.879 -72.51098,93.7015 l -5.65299,11.25 -0.0561,-58.4134 0,0 z"
       id="path4787"
       inkscape:connector-curvature="0"
       transform="translate(0,152.36218)" />
    <path
       style="opacity:0.275;fill:#322200;fill-opacity:1"
       d="m 361.20995,1575.3968 c -0.61331,-9.2616 -1.11915,-34.1686 -1.12407,-55.3489 l -0.009,-38.5096 45.4327,0.055 c 39.93316,0.048 45.03386,0.3569 42.13789,2.5487 -5.98802,4.5321 -32.49392,30.9644 -41.64649,41.5308 -12.61757,14.5668 -24.35512,31.5945 -34.76087,50.4278 l -8.91507,16.1354 -1.11513,-16.8393 z"
       id="path4789"
       inkscape:connector-curvature="0"
       transform="translate(0,152.36218)" />
    <path
       style="opacity:0.27500000000000002;fill:#666666;fill-opacity:1"
       d="m 362.83367,1585.1572 c -0.4146,-1.3029 -1.25532,-25.1501 -1.86827,-52.9939 l -1.11445,-50.625 16.1226,0.01 c 8.86743,0 28.30736,0.5111 43.19983,1.1288 l 27.07723,1.1231 -20.15415,20.1444 c -23.16813,23.1569 -35.91693,39.3095 -51.48598,65.2322 -6.06265,10.0944 -11.36222,17.2875 -11.77681,15.9846 z"
       id="path4791"
       inkscape:connector-curvature="0"
       transform="translate(0,152.36218)" />
    <rect
       style="opacity:0.275;fill:#322200;fill-opacity:1"
       id="rect4793"
       width="300"
       height="440"
       x="700"
       y="1480"
       transform="translate(0,152.36218)" />
    <rect
       style="opacity:0.275;fill:#322200;fill-opacity:1"
       id="rect4795"
       width="300"
       height="80"
       x="540"
       y="1360"
       transform="translate(0,152.36218)" />
    <path
       style="fill:none;stroke:#000000;stroke-width:1px;stroke-linecap:butt;stroke-linejoin:miter;stroke-opacity:1"
       d="m 360,1480 260,260 z"
       id="path4797"
       inkscape:connector-curvature="0"
       transform="translate(0,152.36218)" />
    <path
       style="fill:none;stroke:#000000;stroke-width:1px;stroke-linecap:butt;stroke-linejoin:miter;stroke-opacity:1"
       d="M 620,1480 380,1740 z"
       id="path4799"
       inkscape:connector-curvature="0"
       transform="translate(0,152.36218)" />
    <path
       style="opacity:0.275;fill:#322200;fill-opacity:1"
       d="m 701.03846,1700.4806 0,-218.9423 122.45192,0 122.45193,0 15.85833,14.2777 c 8.72207,7.8528 20.59947,19.6506 26.39423,26.2173 l 10.5359,11.9394 0,166.1341 0,166.1341 -11.68269,13.0627 c -6.42548,7.1845 -18.66242,19.1499 -27.19319,26.5899 l -15.51048,13.5272 -121.65298,0 -121.65297,0 0,-218.9423 z"
       id="path4801"
       inkscape:connector-curvature="0"
       transform="translate(0,152.36218)" />
    <path
       style="opacity:0.275;fill:#322200;fill-opacity:1"
       d="m 701.03846,1700.4806 0,-218.9423 122.22513,0 122.22514,0 26.62101,26.2757 26.62103,26.2757 0,165.6644 0,165.6643 -12.54808,13.4368 c -6.90144,7.3901 -19.35635,19.5412 -27.67756,27.0022 l -15.12948,13.5655 -121.1686,0 -121.16859,0 0,-218.9423 z"
       id="path4803"
       inkscape:connector-curvature="0"
       transform="translate(0,152.36218)" />
    <path
       style="opacity:0.275;fill:#322200;fill-opacity:1"
       d="m 701.03846,1700.4806 0,-218.9423 121.58654,0.011 121.58654,0.011 27.25961,27.1462 27.25962,27.1462 0,164.7439 0,164.7438 -27.7466,27.041 -27.74659,27.041 -121.09956,0 -121.09956,0 0,-218.9423 z"
       id="path4805"
       inkscape:connector-curvature="0"
       transform="translate(0,152.36218)" />
    <path
       style="opacity:0.275;fill:#322200;fill-opacity:1"
       d="m 701.03846,1700.4806 0,-218.9423 121.60683,0 121.60682,0 27.23933,27.2793 27.23933,27.2793 0,164.4695 0,164.4695 -28.41965,27.1935 -28.41964,27.1935 -120.42651,0 -120.42651,0 0,-218.9423 z"
       id="path4807"
       inkscape:connector-curvature="0"
       transform="translate(0,152.36218)" />
    <path
       style="opacity:0.275;fill:#322200;fill-opacity:1"
       d="m 701.03846,1700.4806 0,-218.9423 120.70205,0 120.70206,0 28.14409,28.1053 28.14411,28.1054 -0.14635,163.5773 -0.14636,163.5774 -28.6241,27.2596 -28.6241,27.2596 -120.0757,0 -120.0757,0 0,-218.9423 z"
       id="path4809"
       inkscape:connector-curvature="0"
       transform="translate(0,152.36218)" />
    <path
       style="opacity:0.275;fill:#322200;fill-opacity:1"
       d="m 701.03846,1700.4806 0,-218.9423 120.70205,0 120.70206,0 28.14409,28.1053 28.14411,28.1054 0.0759,162.7119 0.0759,162.712 -29.06631,28.0852 -29.0663,28.0851 -119.85577,0.04 -119.85577,0.04 0,-218.9423 z"
       id="path4811"
       inkscape:connector-curvature="0"
       transform="translate(0,152.36218)" />
    <path
       style="opacity:0.275;fill:#322200;fill-opacity:1"
       d="m 701.03846,1700.4806 0,-218.9423 120.70205,0 120.70206,0 28.14409,28.1053 28.14411,28.1054 0,162.8472 0,162.8471 -29.27053,27.9898 -29.27052,27.9898 -119.57563,0 -119.57563,0 0,-218.9423 z"
       id="path4813"
       inkscape:connector-curvature="0"
       transform="translate(0,152.36218)" />
    <path
       style="opacity:0.275;fill:#322200;fill-opacity:1"
       d="m 701.03846,1700.4806 0,-218.9423 120.70205,0 120.70206,0 28.14409,28.1053 28.14411,28.1054 -0.0392,162.7119 -0.0392,162.712 -29.23581,28.125 -29.23583,28.125 -119.57116,0 -119.57116,0 0,-218.9423 z"
       id="path4815"
       inkscape:connector-curvature="0"
       transform="translate(0,152.36218)" />
    <path
       style="opacity:0.275;fill:#322200;fill-opacity:1"
       d="m 701.03846,1700.4806 0,-218.9423 120.70205,0 120.70206,0 28.14409,28.1053 28.14411,28.1054 -0.12704,162.7119 -0.12704,162.712 -29.45596,28.125 -29.45596,28.125 -119.26309,0 -119.26322,0 0,-218.9423 z"
       id="path4817"
       inkscape:connector-curvature="0"
       transform="translate(0,152.36218)" />
    <path
       style="opacity:0.27500000000000002;fill:#333333;fill-opacity:1"
       d="m 701.03846,1700.4806 0,-218.9423 120.70205,0 120.70206,0 28.14409,28.1053 28.14411,28.1054 0,162.1008 0,162.1008 -29.60093,28.7362 -29.60093,28.7361 -119.24522,0 -119.24523,0 0,-218.9423 z"
       id="path4819"
       inkscape:connector-curvature="0"
       transform="translate(0,152.36218)" />
    <path
       style="opacity:0.275;fill:#322200;fill-opacity:1"
       d="m 981.42308,1512.8869 c -9.04327,-9.3581 -20.25148,-20.2398 -24.90714,-24.1816 l -8.46483,-7.167 25.33983,0 25.33983,0 0,24.2308 c 0,13.3269 -0.19471,24.2086 -0.43269,24.1816 -0.23798,-0.027 -7.83173,-7.7058 -16.875,-17.0638 z"
       id="path4821"
       inkscape:connector-curvature="0"
       transform="translate(0,152.36218)" />
    <path
       style="opacity:0.275;fill:#322200;fill-opacity:1"
       d="m 973.23453,1504.0599 -22.90009,-22.5216 24.19816,0 24.19817,0 -0.17117,13.4135 c -0.0941,7.3774 -0.67828,17.5121 -1.29808,22.5216 l -1.1269,9.1081 -22.90009,-22.5216 z"
       id="path4823"
       inkscape:connector-curvature="0"
       transform="translate(0,152.36218)" />
    <path
       style="opacity:0.275;fill:#322200;fill-opacity:1"
       d="m 972.63674,1502.4365 -21.50212,-20.7322 23.58997,-0.083 23.58998,-0.083 -0.86312,19.4712 c -0.47471,10.7091 -1.41424,20.0759 -2.08785,20.8152 -0.67361,0.7392 -10.9007,-7.9855 -22.72686,-19.3882 l 0,0 z"
       id="path4825"
       inkscape:connector-curvature="0"
       transform="translate(0,152.36218)" />
    <path
       style="opacity:0.275;fill:#322200;fill-opacity:1"
       d="m 973.6066,1501.9586 c -21.46924,-20.4979 -21.57674,-20.1119 5.65302,-20.2986 L 997,1481.5383 l 0,11.0084 c 0,13.6639 -1.75833,27.0685 -3.55066,27.0685 -0.74217,0 -9.6714,-7.9455 -19.84274,-17.6566 z"
       id="path4827"
       inkscape:connector-curvature="0"
       transform="translate(0,152.36218)" />
    <path
       style="opacity:0.275;fill:#322200;fill-opacity:1"
       d="m 975.06179,1501.8034 c -9.34499,-9.0905 -16.60444,-16.8872 -16.13211,-17.3258 0.47233,-0.4387 9.31008,-1.3598 19.63946,-2.0469 l 18.78067,-1.2493 -1.22779,17.0534 c -0.67528,9.3795 -1.86714,17.7383 -2.64856,18.5753 -0.784,0.8397 -9.03598,-5.8862 -18.41167,-15.0067 l 0,0 z"
       id="path4829"
       inkscape:connector-curvature="0"
       transform="translate(0,152.36218)" />
    <path
       style="opacity:0.275;fill:#322200;fill-opacity:1"
       d="m 401.61538,1200.2883 0,-59.7115 298.5577,0 298.55769,0 0,59.7115 0,59.7116 -298.55769,0 -298.5577,0 0,-59.7116 z"
       id="path4831"
       inkscape:connector-curvature="0"
       transform="translate(0,152.36218)" />
    <path
       style="opacity:0.275;fill:#322200;fill-opacity:1"
       d="m 401.61538,1200.2883 0,-59.7115 298.5577,0 298.55769,0 0,59.7115 0,59.7116 -298.55769,0 -298.5577,0 0,-59.7116 z"
       id="path4833"
       inkscape:connector-curvature="0"
       transform="translate(0,152.36218)" />
    <path
       style="opacity:0.275;fill:#322200;fill-opacity:1"
       d="m 401.61538,1200.2883 0,-59.7115 298.5577,0 298.55769,0 0,59.7115 0,59.7116 -298.55769,0 -298.5577,0 0,-59.7116 z"
       id="path4835"
       inkscape:connector-curvature="0"
       transform="translate(0,152.36218)" />
    <path
       style="opacity:0.275;fill:#322200;fill-opacity:1"
       d="m 401.61538,1200.2883 0,-59.7115 298.5577,0 298.55769,0 0,59.7115 0,59.7116 -298.55769,0 -298.5577,0 0,-59.7116 z"
       id="path4837"
       inkscape:connector-curvature="0"
       transform="translate(0,152.36218)" />
    <path
       style="opacity:0.275;fill:#322200;fill-opacity:1"
       d="m 401.61538,1200.2883 0,-59.7115 298.5577,0 298.55769,0 0,59.7115 0,59.7116 -298.55769,0 -298.5577,0 0,-59.7116 z"
       id="path4839"
       inkscape:connector-curvature="0"
       transform="translate(0,152.36218)" />
    <path
       style="opacity:0.27500000000000002;fill:#fffaef;fill-opacity:1"
       d="m 401.61538,1200.2883 0,-59.7115 298.5577,0 298.55769,0 0,59.7115 0,59.7116 -298.55769,0 -298.5577,0 0,-59.7116 z"
       id="path4841"
       inkscape:connector-curvature="0"
       transform="translate(0,152.36218)" />
    <path
       style="opacity:0.275;fill:#322200;fill-opacity:1"
       d="m 1040.2692,1319.7114 0,-59.7115 139.327,0 139.3269,0 0,59.7115 0,59.7115 -139.3269,0 -139.327,0 0,-59.7115 z"
       id="path4843"
       inkscape:connector-curvature="0"
       transform="translate(0,152.36218)" />
    <path
       style="opacity:0.275;fill:#322200;fill-opacity:1"
       d="m 1040.2692,1319.7114 0,-59.7115 139.327,0 139.3269,0 0,59.7115 0,59.7115 -139.3269,0 -139.327,0 0,-59.7115 z"
       id="path4845"
       inkscape:connector-curvature="0"
       transform="translate(0,152.36218)" />
    <path
       style="opacity:0.275;fill:#322200;fill-opacity:1"
       d="m 1040.2692,1319.7114 0,-59.7115 139.327,0 139.3269,0 0,59.7115 0,59.7115 -139.3269,0 -139.327,0 0,-59.7115 z"
       id="path4847"
       inkscape:connector-curvature="0"
       transform="translate(0,152.36218)" />
    <path
       style="opacity:0.275;fill:#322200;fill-opacity:1"
       d="m 1040.2692,1319.7114 0,-59.7115 139.327,0 139.3269,0 0,59.7115 0,59.7115 -139.3269,0 -139.327,0 0,-59.7115 z"
       id="path4849"
       inkscape:connector-curvature="0"
       transform="translate(0,152.36218)" />
    <path
       style="opacity:0.27500000000000002;fill:#fff0d2;fill-opacity:1"
       d="m 1040.2692,1319.7114 0,-59.7115 139.327,0 139.3269,0 0,59.7115 0,59.7115 -139.3269,0 -139.327,0 0,-59.7115 z"
       id="path4851"
       inkscape:connector-curvature="0"
       transform="translate(0,152.36218)" />
    <path
       style="opacity:0.275;fill:#322200;fill-opacity:1"
       d="m 81.423077,1319.7114 0,-59.7115 138.461543,0 138.46153,0 0,59.7115 0,59.7115 -138.46153,0 -138.461543,0 0,-59.7115 z"
       id="path4853"
       inkscape:connector-curvature="0"
       transform="translate(0,152.36218)" />
    <path
       style="opacity:0.275;fill:#322200;fill-opacity:1"
       d="m 81.423077,1319.7114 0,-59.7115 138.461543,0 138.46153,0 0,59.7115 0,59.7115 -138.46153,0 -138.461543,0 0,-59.7115 z"
       id="path4855"
       inkscape:connector-curvature="0"
       transform="translate(0,152.36218)" />
    <path
       style="opacity:0.275;fill:#322200;fill-opacity:1"
       d="m 81.423077,1319.7114 0,-59.7115 138.461543,0 138.46153,0 0,59.7115 0,59.7115 -138.46153,0 -138.461543,0 0,-59.7115 z"
       id="path4857"
       inkscape:connector-curvature="0"
       transform="translate(0,152.36218)" />
    <path
       style="opacity:0.275;fill:#322200;fill-opacity:1"
       d="m 81.423077,1319.7114 0,-59.7115 138.461543,0 138.46153,0 0,59.7115 0,59.7115 -138.46153,0 -138.461543,0 0,-59.7115 z"
       id="path4859"
       inkscape:connector-curvature="0"
       transform="translate(0,152.36218)" />
    <path
       style="opacity:0.275;fill:#322200;fill-opacity:1"
       d="m 81.423077,1319.7114 0,-59.7115 138.461543,0 138.46153,0 0,59.7115 0,59.7115 -138.46153,0 -138.461543,0 0,-59.7115 z"
       id="path4861"
       inkscape:connector-curvature="0"
       transform="translate(0,152.36218)" />
    <path
       style="opacity:0.27500000000000002;fill:#fff7e6;fill-opacity:1"
       d="m 81.423077,1319.7114 0,-59.7115 138.461543,0 138.46153,0 0,59.7115 0,59.7115 -138.46153,0 -138.461543,0 0,-59.7115 z"
       id="path4863"
       inkscape:connector-curvature="0"
       transform="translate(0,152.36218)" />
    <rect
       style="opacity:0.275;fill:#322200;fill-opacity:1"
       id="rect4865"
       width="120"
       height="20"
       x="360"
       y="392.36218" />
    <rect
       style="opacity:0.275;fill:#322200;fill-opacity:1"
       id="rect4867"
       width="120"
       height="20"
       x="540"
       y="240"
       transform="translate(0,152.36218)" />
    <rect
       style="opacity:0.275;fill:#322200;fill-opacity:1"
       id="rect4869"
       width="120"
       height="20"
       x="740"
       y="240"
       transform="translate(0,152.36218)" />
    <rect
       style="opacity:0.275;fill:#322200;fill-opacity:1"
       id="rect4871"
       width="120"
       height="20"
       x="920"
       y="240"
       transform="translate(0,152.36218)" />
    <rect
       style="opacity:0.275;fill:#322200;fill-opacity:1"
       id="rect4873"
       width="80"
       height="20"
       x="1080"
       y="420"
       transform="translate(0,152.36218)" />
    <rect
       style="opacity:0.275;fill:#322200;fill-opacity:1"
       id="rect4875"
       width="80"
       height="20"
       x="1080"
       y="440"
       transform="translate(0,152.36218)" />
    <rect
       style="opacity:0.275;fill:#322200;fill-opacity:1"
       id="rect4877"
       width="80"
       height="20"
       x="1080"
       y="460"
       transform="translate(0,152.36218)" />
    <rect
       style="opacity:0.275;fill:#322200;fill-opacity:1"
       id="rect4879"
       width="100"
       height="20"
       x="1080"
       y="500"
       transform="translate(0,152.36218)" />
    <rect
       style="opacity:0.275;fill:#322200;fill-opacity:1"
       id="rect4881"
       width="100"
       height="20"
       x="1080"
       y="520"
       transform="translate(0,152.36218)" />
    <rect
       style="opacity:0.275;fill:#322200;fill-opacity:1"
       id="rect4883"
       width="100"
       height="20"
       x="1080"
       y="540"
       transform="translate(0,152.36218)" />
    <rect
       style="opacity:0.275;fill:#322200;fill-opacity:1"
       id="rect4885"
       width="180"
       height="20"
       x="253.46153"
       y="658.32373" />
    <rect
       style="opacity:0.275;fill:#322200;fill-opacity:1"
       id="rect4887"
       width="148.84616"
       height="92.115387"
       x="267.30768"
       y="545.0545"
       inkscape:transform-center-x="-8.2692313"
       inkscape:transform-center-y="23.02888" />
    <rect
       style="opacity:0.275;fill:#322200;fill-opacity:1"
       id="rect4899"
       width="160"
       height="20"
       x="740"
       y="1580"
       transform="translate(0,152.36218)" />
    <rect
       style="opacity:0.275;fill:#322200;fill-opacity:1"
       id="rect4901"
       width="160"
       height="20"
       x="740"
       y="1620"
       transform="translate(0,152.36218)" />
    <rect
       style="opacity:0.27500000000000002;fill:#808080;fill-opacity:1"
       id="rect4903"
       width="240"
       height="320"
       x="740"
       y="1672.3622" />
  </g>
</svg>
